<?xml version="1.0" encoding="UTF-8" standalone="no"?>
<!-- Created with Inkscape (http://www.inkscape.org/) -->

<svg
   width="168.37869mm"
   height="168.38025mm"
   viewBox="0 0 168.37869 168.38025"
   version="1.1"
   id="svg7720"
   xml:space="preserve"
   inkscape:version="1.2.1 (9c6d41e, 2022-07-14)"
   sodipodi:docname="site-logo.svg"
   xmlns:inkscape="http://www.inkscape.org/namespaces/inkscape"
   xmlns:sodipodi="http://sodipodi.sourceforge.net/DTD/sodipodi-0.dtd"
   xmlns="http://www.w3.org/2000/svg"
   xmlns:svg="http://www.w3.org/2000/svg"><sodipodi:namedview
     id="namedview7722"
     pagecolor="#ffffff"
     bordercolor="#000000"
     borderopacity="0.25"
     inkscape:showpageshadow="2"
     inkscape:pageopacity="0.0"
     inkscape:pagecheckerboard="0"
     inkscape:deskcolor="#d1d1d1"
     inkscape:document-units="mm"
     showgrid="false"
     inkscape:zoom="0.2102413"
     inkscape:cx="-461.37462"
     inkscape:cy="313.925"
     inkscape:window-width="1309"
     inkscape:window-height="456"
     inkscape:window-x="0"
     inkscape:window-y="38"
     inkscape:window-maximized="0"
     inkscape:current-layer="layer1" /><defs
     id="defs7717" /><g
     inkscape:label="Layer 1"
     inkscape:groupmode="layer"
     id="layer1"
     transform="translate(3.454611,-65.568351)"><g
       id="g46490"
       transform="matrix(0.9339785,0,0,0.9339785,-17.320608,13.094842)"
       style="fill:#b3a369;fill-opacity:1"><path
         id="path858"
         style="opacity:1;fill:#b3a369;fill-opacity:1;stroke-width:6.77631;stroke-linecap:square;stroke-linejoin:round"
         d="m 104.98756,56.18278 a 90.141218,90.141218 0 0 0 -90.141397,90.14139 90.141218,90.141218 0 0 0 90.141397,90.1414 90.141218,90.141218 0 0 0 90.13973,-90.1414 90.141218,90.141218 0 0 0 -90.13973,-90.14139 z m 0,3.700478 a 86.441276,86.441276 0 0 1 86.44091,86.440912 86.441276,86.441276 0 0 1 -86.44091,86.44091 86.441276,86.441276 0 0 1 -86.442585,-86.44091 86.441276,86.441276 0 0 1 86.442585,-86.440912 z" /><g
         aria-label="GT RAMBLIN' RAAS"
         id="text1710"
         style="font-size:5.29167px;line-height:1.25;font-family:Calibri;-inkscape-font-specification:Calibri;letter-spacing:1.01865px;word-spacing:-0.515938px;opacity:1;fill:#b3a369;fill-opacity:1;stroke-width:0.0611345"
         transform="matrix(3.2328982,0,0,3.2328982,-259.58424,-446.60496)"><path
           d="m 134.54033,195.78309 q 0.10376,0.30271 0.0587,0.66048 -0.0458,0.35419 -0.25065,0.67404 -0.75388,1.17714 -2.38142,0.13481 -0.81594,-0.52256 -1.04933,-1.09238 -0.23416,-0.57339 0.12536,-1.13476 0.54067,-0.84423 1.50953,-0.50295 l -0.13585,0.44688 q -0.68084,-0.23046 -1.0097,0.28304 -0.24386,0.38077 -0.0333,0.76108 0.21194,0.37812 0.86905,0.79896 0.65058,0.41665 1.06746,0.44124 0.4161,0.021 0.66275,-0.36411 0.23828,-0.37207 0.14222,-0.80178 l -0.66798,-0.4278 -0.39993,0.62447 -0.38078,-0.24386 0.66191,-1.03353 z"
           style="font-family:Ti83pc;-inkscape-font-specification:Ti83pc;fill:#b3a369;fill-opacity:1"
           id="path45305" /><path
           d="m 133.70914,190.83821 -0.45226,1.05431 3.06794,1.31604 -0.19863,0.46304 -3.06794,-1.31604 -0.44819,1.04481 -0.41317,-0.17724 1.09908,-2.56216 z"
           style="font-family:Ti83pc;-inkscape-font-specification:Ti83pc;fill:#b3a369;fill-opacity:1"
           id="path45307" /><path
           d="m 138.31288,184.27459 -0.0597,0.62762 q -0.9518,0.48302 -1.16774,0.59744 -0.21593,0.11441 -0.37013,0.2347 -0.15677,0.12005 -0.20404,0.23494 -0.0498,0.11465 -0.0702,0.32814 l -0.005,0.0489 1.66422,0.15838 -0.0475,0.49901 -3.77085,-0.35888 0.10869,-1.14205 q 0.0326,-0.34211 0.0983,-0.56944 0.0658,-0.22734 0.22387,-0.38878 0.15555,-0.16169 0.37785,-0.23398 0.22255,-0.0749 0.4592,-0.0523 0.42698,0.0406 0.66107,0.33544 0.23409,0.29481 0.25433,0.81843 l 0.0103,9.8e-4 q 0.14195,-0.26421 0.74798,-0.57769 z m -2.32402,2.02912 0.0517,-0.54273 q 0.0311,-0.32667 -0.005,-0.51958 -0.0387,-0.19316 -0.18743,-0.32151 -0.1487,-0.12836 -0.34676,-0.14721 -0.27266,-0.0259 -0.4636,0.15314 -0.19094,0.17909 -0.2306,0.59578 l -0.0632,0.66363 z"
           style="font-family:Ti83pc;-inkscape-font-specification:Ti83pc;fill:#b3a369;fill-opacity:1"
           id="path45309" /><path
           d="m 138.11071,180.12077 0.0367,0.531 -1.12393,0.45076 0.0914,1.31976 1.17373,0.2684 0.0351,0.5078 -3.86413,-0.97053 -0.0371,-0.53616 z m -1.47504,1.1407 q -1.51331,0.62535 -1.67356,0.66752 0.0915,0.0118 0.50215,0.10769 l 1.24492,0.28678 z"
           style="font-family:Ti83pc;-inkscape-font-specification:Ti83pc;fill:#b3a369;fill-opacity:1"
           id="path45311" /><path
           d="m 137.31189,176.35095 0.10959,0.46262 -2.96179,0.70159 1.5672,0.27135 0.0536,0.22628 -1.20636,0.90445 2.88384,-0.68312 0.10363,0.43748 -3.68588,0.87311 -0.12269,-0.51793 0.90088,-0.68074 q 0.23157,-0.177 0.42993,-0.30365 l -0.15079,-0.02 -1.47781,-0.2527 -0.12924,-0.54559 z"
           style="font-family:Ti83pc;-inkscape-font-specification:Ti83pc;fill:#b3a369;fill-opacity:1"
           id="path45313" /><path
           d="m 134.18547,173.71823 q -0.0376,-0.37081 0.12094,-0.62769 0.15517,-0.25825 0.44832,-0.381 0.40516,-0.16966 0.82798,-0.0162 0.42183,0.15111 0.7332,0.89471 l 0.42513,1.01529 -3.49394,1.46302 -0.41516,-0.99146 q -0.26645,-0.63635 -0.0988,-1.01189 0.16769,-0.37555 0.50612,-0.51726 0.2288,-0.0958 0.47413,-0.0585 0.24295,0.0383 0.47205,0.23092 z m 0.33138,1.27304 -0.18263,-0.43614 q -0.0978,-0.23357 -0.18988,-0.37989 -0.0931,-0.1487 -0.25599,-0.22335 -0.16292,-0.0746 -0.39887,0.0242 -0.24786,0.10378 -0.31275,0.27662 -0.0683,0.17144 -0.0226,0.35402 0.0446,0.18019 0.15641,0.44713 l 0.15768,0.37656 z m 1.61589,-0.67662 -0.22953,-0.54816 q -0.19561,-0.46713 -0.43113,-0.5814 -0.23553,-0.11427 -0.51676,0.003 -0.28362,0.11876 -0.36008,0.37767 -0.0788,0.25992 0.13172,0.7628 l 0.20459,0.48858 z"
           style="font-family:Ti83pc;-inkscape-font-specification:Ti83pc;fill:#b3a369;fill-opacity:1"
           id="path45315" /><path
           d="m 133.61976,168.63392 1.26177,2.00546 -3.20611,2.01716 -0.26694,-0.42427 2.82557,-1.77775 -0.99482,-1.58118 z"
           style="font-family:Ti83pc;-inkscape-font-specification:Ti83pc;fill:#b3a369;fill-opacity:1"
           id="path45317" /><path
           d="m 131.24893,165.79368 1.19379,1.34149 -0.33585,0.29888 -0.42943,-0.48255 -2.15796,1.92037 0.42942,0.48255 -0.33586,0.29888 -1.19379,-1.34149 0.33586,-0.29888 0.42942,0.48255 2.15797,-1.92037 -0.42943,-0.48255 z"
           style="font-family:Ti83pc;-inkscape-font-specification:Ti83pc;fill:#b3a369;fill-opacity:1"
           id="path45319" /><path
           d="m 127.90521,162.84109 0.4,0.32308 -0.71939,2.99607 -0.0897,0.19328 0.34519,-0.4685 1.51313,-1.87337 0.36181,0.29224 -2.38009,2.94673 -0.39799,-0.32145 0.71336,-3.00095 0.0872,-0.18198 -0.38578,0.51875 -1.46604,1.81507 -0.36181,-0.29223 z"
           style="font-family:Ti83pc;-inkscape-font-specification:Ti83pc;fill:#b3a369;fill-opacity:1"
           id="path45321" /><path
           d="m 123.55161,163.83766 0.46435,-0.57121 0.24935,0.14172 -0.2532,0.69123 -0.30515,0.53687 -0.4605,-0.26174 z"
           style="font-family:Ti83pc;-inkscape-font-specification:Ti83pc;fill:#b3a369;fill-opacity:1"
           id="path45323" /><path
           d="m 116.47178,158.11291 0.61705,0.12929 q 0.37396,0.9997 0.4636,1.22703 0.0896,0.22734 0.192,0.39399 0.10183,0.16917 0.21074,0.22895 0.10838,0.0623 0.31828,0.10629 l 0.0481,0.0101 0.34284,-1.63621 0.49061,0.1028 -0.77682,3.70738 -1.12283,-0.23527 q -0.33635,-0.0705 -0.55494,-0.16116 -0.2186,-0.0907 -0.36142,-0.2658 -0.14335,-0.1726 -0.19041,-0.40157 -0.0496,-0.22951 -8.4e-4,-0.46217 0.088,-0.41979 0.40702,-0.61958 0.31905,-0.19978 0.84167,-0.16155 l 0.002,-0.0101 q -0.24675,-0.17049 -0.49075,-0.80769 z m 1.75752,2.53564 -0.5336,-0.1118 q -0.32117,-0.0673 -0.51691,-0.0529 -0.19626,0.017 -0.34039,0.15043 -0.14412,0.13348 -0.18493,0.3282 -0.0562,0.26806 0.10053,0.47777 0.15669,0.20971 0.56638,0.29555 l 0.65245,0.13671 z"
           style="font-family:Ti83pc;-inkscape-font-specification:Ti83pc;fill:#b3a369;fill-opacity:1"
           id="path45325" /><path
           d="m 112.32098,157.85366 0.5318,0.0223 0.32357,1.16693 1.32176,0.0553 0.39669,-1.1368 0.50857,0.0213 -1.39234,3.73294 -0.53697,-0.0225 z m 0.9704,1.59225 q 0.45397,1.57323 0.47815,1.73717 0.0219,-0.0896 0.16261,-0.48714 l 0.42284,-1.20552 z"
           style="font-family:Ti83pc;-inkscape-font-specification:Ti83pc;fill:#b3a369;fill-opacity:1"
           id="path45327" /><path
           d="m 108.14487,158.27317 0.52832,-0.0647 0.50945,1.09858 1.3131,-0.16088 0.20608,-1.18625 0.50524,-0.0619 -0.76525,3.90997 -0.53345,0.0653 z m 1.21696,1.41278 q 0.70434,1.4782 0.75491,1.636 0.007,-0.092 0.081,-0.50713 l 0.22068,-1.25833 z"
           style="font-family:Ti83pc;-inkscape-font-specification:Ti83pc;fill:#b3a369;fill-opacity:1"
           id="path45329" /><path
           d="m 105.63104,161.80989 q 0.16282,0.3346 0.38762,0.40327 0.2248,0.0687 0.51983,-0.0179 0.68428,-0.2008 0.52495,-0.74377 -0.0589,-0.20082 -0.22569,-0.29191 -0.1685,-0.0879 -0.72494,-0.0754 -0.45742,0.0104 -0.72599,-0.0239 -0.26784,-0.0318 -0.48587,-0.19671 -0.21979,-0.16169 -0.32601,-0.52367 -0.14697,-0.50081 0.0788,-0.88752 0.22654,-0.38422 0.79677,-0.55156 0.55288,-0.16224 0.97581,-0.0332 0.42365,0.13149 0.74028,0.73331 l -0.44702,0.17427 q -0.15482,-0.30733 -0.45526,-0.43189 -0.3022,-0.12136 -0.66665,-0.0144 -0.75122,0.22045 -0.57006,0.83779 0.088,0.29999 0.34242,0.38691 0.25512,0.0894 0.82031,0.0609 0.34486,-0.0177 0.57859,0.008 0.23124,0.0264 0.43675,0.17612 0.20623,0.15221 0.30445,0.48691 0.13169,0.44875 -0.0868,0.81447 -0.22026,0.36892 -0.73843,0.52097 -0.56031,0.16443 -0.92737,0.006 -0.36634,-0.15639 -0.57922,-0.64325 z"
           style="font-family:Ti83pc;-inkscape-font-specification:Ti83pc;fill:#b3a369;fill-opacity:1"
           id="path45331" /></g><path
         id="path5263"
         style="color:#000000;opacity:1;fill:#b3a369;fill-opacity:1;stroke-width:1.46396;-inkscape-stroke:none"
         d="m 69.031649,88.914423 -6.957731,4.99683 38.790652,54.014907 v 36.23895 h -7.800458 c -4.950189,0 -7.462147,-1.66795 -9.336258,-3.63055 -1.874111,-1.96262 -3.167528,-4.44575 -3.167528,-7.09773 0,-10.7318 5.644283,-14.8553 10.38779,-17.33793 l 3.208386,-1.67949 -25.155857,-32.94727 -5.819201,4.44302 20.538844,26.8974 c -4.641083,3.56295 -10.769074,9.60383 -10.769074,20.62427 0,4.29597 1.741498,8.83217 5.078528,12.32681 3.336998,3.4946 8.503039,5.72081 15.03437,5.72081 h 16.045798 v -32.07656 l 31.83222,44.32539 6.95768,-4.99679 -38.7899,-54.0142 V 108.4826 h 7.8005 c 4.95015,0 7.46215,1.66798 9.33622,3.63058 1.87415,1.9626 3.16761,4.44572 3.16761,7.0977 0,10.73183 -5.6443,14.8553 -10.38783,17.33797 l -3.20838,1.67871 25.15584,32.94802 5.8192,-4.44379 -20.53887,-26.89738 c 4.64112,-3.56298 10.76911,-9.6031 10.76911,-20.62353 0,-4.29597 -1.7415,-8.83218 -5.07853,-12.32682 -3.33702,-3.4946 -8.503,-5.72154 -15.03437,-5.72154 h -16.04584 v 32.07878 z m 2.178036,7.88445 4.242564,5.908447 -2.359595,1.69462 -4.243309,-5.907667 z m 8.970095,12.490957 4.243341,5.90844 -2.360371,1.69537 -4.243308,-5.90919 z m 8.970813,12.49094 4.243309,5.90919 -2.360308,1.69462 -4.243348,-5.90922 z m 8.970089,12.49095 4.243338,5.90919 -2.36037,1.69459 -4.243338,-5.90844 z m 11.849418,16.49971 4.24333,5.90923 -2.36036,1.69457 -4.24332,-5.90843 z m 8.97005,12.49096 4.24335,5.90919 -2.3596,1.69461 -4.24405,-5.90845 z m 8.97085,12.49169 4.24331,5.90841 -2.36031,1.6954 -4.24331,-5.90919 z m 8.9701,12.49017 4.24334,5.90919 -2.36038,1.69462 -4.24333,-5.90842 z" /><g
         aria-label="GT RAMBLIN' RAAS"
         id="g46058"
         style="font-size:5.29167px;line-height:1.25;font-family:Calibri;-inkscape-font-specification:Calibri;letter-spacing:1.01865px;word-spacing:-0.515938px;opacity:1;fill:#b3a369;fill-opacity:1;stroke-width:0.0611345"
         transform="matrix(-3.2328982,0,0,-3.2328982,469.55799,739.25263)"><path
           d="m 134.54033,195.78309 q 0.10376,0.30271 0.0587,0.66048 -0.0458,0.35419 -0.25065,0.67404 -0.75388,1.17714 -2.38142,0.13481 -0.81594,-0.52256 -1.04933,-1.09238 -0.23416,-0.57339 0.12536,-1.13476 0.54067,-0.84423 1.50953,-0.50295 l -0.13585,0.44688 q -0.68084,-0.23046 -1.0097,0.28304 -0.24386,0.38077 -0.0333,0.76108 0.21194,0.37812 0.86905,0.79896 0.65058,0.41665 1.06746,0.44124 0.4161,0.021 0.66275,-0.36411 0.23828,-0.37207 0.14222,-0.80178 l -0.66798,-0.4278 -0.39993,0.62447 -0.38078,-0.24386 0.66191,-1.03353 z"
           style="font-family:Ti83pc;-inkscape-font-specification:Ti83pc;fill:#b3a369;fill-opacity:1"
           id="path46030" /><path
           d="m 133.70914,190.83821 -0.45226,1.05431 3.06794,1.31604 -0.19863,0.46304 -3.06794,-1.31604 -0.44819,1.04481 -0.41317,-0.17724 1.09908,-2.56216 z"
           style="font-family:Ti83pc;-inkscape-font-specification:Ti83pc;fill:#b3a369;fill-opacity:1"
           id="path46032" /><path
           d="m 138.31288,184.27459 -0.0597,0.62762 q -0.9518,0.48302 -1.16774,0.59744 -0.21593,0.11441 -0.37013,0.2347 -0.15677,0.12005 -0.20404,0.23494 -0.0498,0.11465 -0.0702,0.32814 l -0.005,0.0489 1.66422,0.15838 -0.0475,0.49901 -3.77085,-0.35888 0.10869,-1.14205 q 0.0326,-0.34211 0.0983,-0.56944 0.0658,-0.22734 0.22387,-0.38878 0.15555,-0.16169 0.37785,-0.23398 0.22255,-0.0749 0.4592,-0.0523 0.42698,0.0406 0.66107,0.33544 0.23409,0.29481 0.25433,0.81843 l 0.0103,9.8e-4 q 0.14195,-0.26421 0.74798,-0.57769 z m -2.32402,2.02912 0.0517,-0.54273 q 0.0311,-0.32667 -0.005,-0.51958 -0.0387,-0.19316 -0.18743,-0.32151 -0.1487,-0.12836 -0.34676,-0.14721 -0.27266,-0.0259 -0.4636,0.15314 -0.19094,0.17909 -0.2306,0.59578 l -0.0632,0.66363 z"
           style="font-family:Ti83pc;-inkscape-font-specification:Ti83pc;fill:#b3a369;fill-opacity:1"
           id="path46034" /><path
           d="m 138.11071,180.12077 0.0367,0.531 -1.12393,0.45076 0.0914,1.31976 1.17373,0.2684 0.0351,0.5078 -3.86413,-0.97053 -0.0371,-0.53616 z m -1.47504,1.1407 q -1.51331,0.62535 -1.67356,0.66752 0.0915,0.0118 0.50215,0.10769 l 1.24492,0.28678 z"
           style="font-family:Ti83pc;-inkscape-font-specification:Ti83pc;fill:#b3a369;fill-opacity:1"
           id="path46036" /><path
           d="m 137.31189,176.35095 0.10959,0.46262 -2.96179,0.70159 1.5672,0.27135 0.0536,0.22628 -1.20636,0.90445 2.88384,-0.68312 0.10363,0.43748 -3.68588,0.87311 -0.12269,-0.51793 0.90088,-0.68074 q 0.23157,-0.177 0.42993,-0.30365 l -0.15079,-0.02 -1.47781,-0.2527 -0.12924,-0.54559 z"
           style="font-family:Ti83pc;-inkscape-font-specification:Ti83pc;fill:#b3a369;fill-opacity:1"
           id="path46038" /><path
           d="m 134.18547,173.71823 q -0.0376,-0.37081 0.12094,-0.62769 0.15517,-0.25825 0.44832,-0.381 0.40516,-0.16966 0.82798,-0.0162 0.42183,0.15111 0.7332,0.89471 l 0.42513,1.01529 -3.49394,1.46302 -0.41516,-0.99146 q -0.26645,-0.63635 -0.0988,-1.01189 0.16769,-0.37555 0.50612,-0.51726 0.2288,-0.0958 0.47413,-0.0585 0.24295,0.0383 0.47205,0.23092 z m 0.33138,1.27304 -0.18263,-0.43614 q -0.0978,-0.23357 -0.18988,-0.37989 -0.0931,-0.1487 -0.25599,-0.22335 -0.16292,-0.0746 -0.39887,0.0242 -0.24786,0.10378 -0.31275,0.27662 -0.0683,0.17144 -0.0226,0.35402 0.0446,0.18019 0.15641,0.44713 l 0.15768,0.37656 z m 1.61589,-0.67662 -0.22953,-0.54816 q -0.19561,-0.46713 -0.43113,-0.5814 -0.23553,-0.11427 -0.51676,0.003 -0.28362,0.11876 -0.36008,0.37767 -0.0788,0.25992 0.13172,0.7628 l 0.20459,0.48858 z"
           style="font-family:Ti83pc;-inkscape-font-specification:Ti83pc;fill:#b3a369;fill-opacity:1"
           id="path46040" /><path
           d="m 133.61976,168.63392 1.26177,2.00546 -3.20611,2.01716 -0.26694,-0.42427 2.82557,-1.77775 -0.99482,-1.58118 z"
           style="font-family:Ti83pc;-inkscape-font-specification:Ti83pc;fill:#b3a369;fill-opacity:1"
           id="path46042" /><path
           d="m 131.24893,165.79368 1.19379,1.34149 -0.33585,0.29888 -0.42943,-0.48255 -2.15796,1.92037 0.42942,0.48255 -0.33586,0.29888 -1.19379,-1.34149 0.33586,-0.29888 0.42942,0.48255 2.15797,-1.92037 -0.42943,-0.48255 z"
           style="font-family:Ti83pc;-inkscape-font-specification:Ti83pc;fill:#b3a369;fill-opacity:1"
           id="path46044" /><path
           d="m 127.90521,162.84109 0.4,0.32308 -0.71939,2.99607 -0.0897,0.19328 0.34519,-0.4685 1.51313,-1.87337 0.36181,0.29224 -2.38009,2.94673 -0.39799,-0.32145 0.71336,-3.00095 0.0872,-0.18198 -0.38578,0.51875 -1.46604,1.81507 -0.36181,-0.29223 z"
           style="font-family:Ti83pc;-inkscape-font-specification:Ti83pc;fill:#b3a369;fill-opacity:1"
           id="path46046" /><path
           d="m 123.55161,163.83766 0.46435,-0.57121 0.24935,0.14172 -0.2532,0.69123 -0.30515,0.53687 -0.4605,-0.26174 z"
           style="font-family:Ti83pc;-inkscape-font-specification:Ti83pc;fill:#b3a369;fill-opacity:1"
           id="path46048" /><path
           d="m 116.47178,158.11291 0.61705,0.12929 q 0.37396,0.9997 0.4636,1.22703 0.0896,0.22734 0.192,0.39399 0.10183,0.16917 0.21074,0.22895 0.10838,0.0623 0.31828,0.10629 l 0.0481,0.0101 0.34284,-1.63621 0.49061,0.1028 -0.77682,3.70738 -1.12283,-0.23527 q -0.33635,-0.0705 -0.55494,-0.16116 -0.2186,-0.0907 -0.36142,-0.2658 -0.14335,-0.1726 -0.19041,-0.40157 -0.0496,-0.22951 -8.4e-4,-0.46217 0.088,-0.41979 0.40702,-0.61958 0.31905,-0.19978 0.84167,-0.16155 l 0.002,-0.0101 q -0.24675,-0.17049 -0.49075,-0.80769 z m 1.75752,2.53564 -0.5336,-0.1118 q -0.32117,-0.0673 -0.51691,-0.0529 -0.19626,0.017 -0.34039,0.15043 -0.14412,0.13348 -0.18493,0.3282 -0.0562,0.26806 0.10053,0.47777 0.15669,0.20971 0.56638,0.29555 l 0.65245,0.13671 z"
           style="font-family:Ti83pc;-inkscape-font-specification:Ti83pc;fill:#b3a369;fill-opacity:1"
           id="path46050" /><path
           d="m 112.32098,157.85366 0.5318,0.0223 0.32357,1.16693 1.32176,0.0553 0.39669,-1.1368 0.50857,0.0213 -1.39234,3.73294 -0.53697,-0.0225 z m 0.9704,1.59225 q 0.45397,1.57323 0.47815,1.73717 0.0219,-0.0896 0.16261,-0.48714 l 0.42284,-1.20552 z"
           style="font-family:Ti83pc;-inkscape-font-specification:Ti83pc;fill:#b3a369;fill-opacity:1"
           id="path46052" /><path
           d="m 108.14487,158.27317 0.52832,-0.0647 0.50945,1.09858 1.3131,-0.16088 0.20608,-1.18625 0.50524,-0.0619 -0.76525,3.90997 -0.53345,0.0653 z m 1.21696,1.41278 q 0.70434,1.4782 0.75491,1.636 0.007,-0.092 0.081,-0.50713 l 0.22068,-1.25833 z"
           style="font-family:Ti83pc;-inkscape-font-specification:Ti83pc;fill:#b3a369;fill-opacity:1"
           id="path46054" /><path
           d="m 105.63104,161.80989 q 0.16282,0.3346 0.38762,0.40327 0.2248,0.0687 0.51983,-0.0179 0.68428,-0.2008 0.52495,-0.74377 -0.0589,-0.20082 -0.22569,-0.29191 -0.1685,-0.0879 -0.72494,-0.0754 -0.45742,0.0104 -0.72599,-0.0239 -0.26784,-0.0318 -0.48587,-0.19671 -0.21979,-0.16169 -0.32601,-0.52367 -0.14697,-0.50081 0.0788,-0.88752 0.22654,-0.38422 0.79677,-0.55156 0.55288,-0.16224 0.97581,-0.0332 0.42365,0.13149 0.74028,0.73331 l -0.44702,0.17427 q -0.15482,-0.30733 -0.45526,-0.43189 -0.3022,-0.12136 -0.66665,-0.0144 -0.75122,0.22045 -0.57006,0.83779 0.088,0.29999 0.34242,0.38691 0.25512,0.0894 0.82031,0.0609 0.34486,-0.0177 0.57859,0.008 0.23124,0.0264 0.43675,0.17612 0.20623,0.15221 0.30445,0.48691 0.13169,0.44875 -0.0868,0.81447 -0.22026,0.36892 -0.73843,0.52097 -0.56031,0.16443 -0.92737,0.006 -0.36634,-0.15639 -0.57922,-0.64325 z"
           style="font-family:Ti83pc;-inkscape-font-specification:Ti83pc;fill:#b3a369;fill-opacity:1"
           id="path46056" /></g></g></g></svg>
