<?xml version="1.0" encoding="UTF-8" standalone="no"?>
<!-- Created with Inkscape (http://www.inkscape.org/) -->
<!-- Designed by Shaan Patel -->

<svg
   width="564.4444mm"
   height="845.96112mm"
   viewBox="0 0 564.4444 845.96112"
   version="1.1"
   id="svg5"
   xml:space="preserve"
   inkscape:version="1.2.1 (9c6d41e, 2022-07-14)"
   sodipodi:docname="Costumes.svg"
   inkscape:export-filename="../../Desktop/Costumes9.png"
   inkscape:export-xdpi="96"
   inkscape:export-ydpi="96"
   xmlns:inkscape="http://www.inkscape.org/namespaces/inkscape"
   xmlns:sodipodi="http://sodipodi.sourceforge.net/DTD/sodipodi-0.dtd"
   xmlns="http://www.w3.org/2000/svg"
   xmlns:svg="http://www.w3.org/2000/svg"><sodipodi:namedview
     id="namedview7"
     pagecolor="#8a8a8a"
     bordercolor="#000000"
     borderopacity="0.25"
     inkscape:showpageshadow="2"
     inkscape:pageopacity="1"
     inkscape:pagecheckerboard="0"
     inkscape:deskcolor="#d1d1d1"
     inkscape:document-units="mm"
     showgrid="false"
     inkscape:zoom="0.30944546"
     inkscape:cx="1926.026"
     inkscape:cy="665.70697"
     inkscape:window-width="1512"
     inkscape:window-height="916"
     inkscape:window-x="-1"
     inkscape:window-y="38"
     inkscape:window-maximized="0"
     inkscape:current-layer="layer1" /><defs
     id="defs2" /><g
     inkscape:label="Layer 1"
     inkscape:groupmode="layer"
     id="layer1"
     transform="translate(177.22221,252.57931)"><g
       id="g27419"
       style="fill:#b7b7ff;fill-opacity:1"><path
         id="path4612"
         style="fill:#b7b7ff;fill-opacity:1;stroke:none;stroke-width:4.66659;stroke-linecap:round;stroke-linejoin:round;stroke-miterlimit:2;stroke-dashoffset:0.529134"
         d="m 323.56579,392.04702 3.54039,7.63998 c -1.11722,-2.56837 -2.29423,-5.11607 -3.54039,-7.63998 z m 5.53724,11.94874 c -9.13851,41.99144 -15.89891,85.05772 -37.74205,129.98439 5.70747,12.76062 15.77503,23.84433 27.25026,34.38657 l 32.05813,-6.7029 C 347.09458,507.95506 348.52695,452.2393 329.10303,403.99576 Z"
         sodipodi:nodetypes="cccccccc" /><path
         style="fill:#b7b7ff;fill-opacity:1;stroke:none;stroke-width:4.66659;stroke-linecap:round;stroke-linejoin:round;stroke-miterlimit:2;stroke-dashoffset:0.529134"
         d="m 226.22548,399.91562 97.34026,-7.86882 5.53729,11.94896 c -11.53514,52.93089 -19.11725,107.08503 -57.99612,165.24527 l -42.84138,-0.87431 c -9.83757,-56.15037 -13.11752,-112.30073 -2.04005,-168.4511 z"
         id="path4610"
         sodipodi:nodetypes="cccccc" /><g
         id="g27408"
         style="fill:#b7b7ff;fill-opacity:1"><path
           style="fill:#b7b7ff;fill-opacity:1;color:#000000;stroke-width:6.20129;stroke-linecap:round;stroke-miterlimit:2;stroke-dashoffset:0.529134"
           d="m -110.08513,-131.43954 h 439.32955 v 71.881426 h -439.32954 z"
           id="path5111" /><g
           id="g27401"
           style="fill:#b7b7ff;fill-opacity:1"><path
             id="path17369"
             style="fill:#b7b7ff;fill-opacity:1;stroke:none;stroke-width:5.51173;stroke-linecap:round;stroke-linejoin:miter;stroke-miterlimit:2;stroke-dasharray:none;stroke-dashoffset:0.529134;stroke-opacity:1"
             d="m 302.34748,128.21302 3.05571,7.70976 a 2.7558654,2.7558654 0 0 0 -0.38594,0.20603 c -30.86122,22.09073 -72.08262,33.55095 -99.50732,35.05782 V 160.7036 c 3.51569,-0.19341 7.02221,-0.52931 10.51626,-0.96176 12.96694,-1.65211 25.80188,-4.69687 38.24407,-8.74416 16.86776,-5.5369 33.21845,-12.99634 48.07722,-22.78466 z m -193.6751,0 -3.05571,7.70976 a 2.7558654,2.7558654 0 0 1 0.38594,0.20603 c 30.86122,22.09073 72.08262,33.55095 99.50732,35.05782 V 160.7036 c -3.51569,-0.19341 -7.02221,-0.52931 -10.51625,-0.96176 -12.96695,-1.65211 -25.80189,-4.69687 -38.24408,-8.74416 -16.86776,-5.5369 -33.21845,-12.99634 -48.07722,-22.78466 z" /><rect
             style="fill:#b7b7ff;fill-opacity:1;stroke:none;stroke-width:2.07137;stroke-linecap:round;stroke-linejoin:round;stroke-miterlimit:2;stroke-dasharray:none;stroke-dashoffset:0.529134"
             id="rect27349"
             width="20"
             height="20"
             x="38.145847"
             y="-226.94176" /></g></g></g><rect
       style="fill:none;fill-opacity:1;stroke:#000000;stroke-width:2;stroke-linecap:round;stroke-linejoin:round;stroke-miterlimit:2;stroke-dasharray:none;stroke-dashoffset:0.529134"
       id="rect15967"
       width="554.25537"
       height="390.55875"
       x="-172.1277"
       y="-193.69916" /><g
       id="g16541"
       style="fill:#1f1fad;fill-opacity:1"><path
         id="path17371"
         style="fill:#1f1fad;fill-opacity:1;stroke:none;stroke-width:5.51173;stroke-linecap:round;stroke-linejoin:miter;stroke-miterlimit:2;stroke-dasharray:none;stroke-dashoffset:0.529134;stroke-opacity:1"
         d="m 244.27618,-18.306766 53.01896,133.771916 3.34529,8.44035 c -1.94921,1.29956 -3.92694,2.55614 -5.93151,3.76872 -15.71438,9.49047 -32.8346,16.53213 -50.47546,21.54472 -12.64242,3.53597 -25.60342,6.11398 -38.72353,6.92364 V 138.8 -18.306766 Z m -77.5325,0 -53.01896,133.771916 -3.34529,8.44035 c 1.94922,1.29956 3.92694,2.55614 5.93151,3.76872 15.71438,9.49047 32.8346,16.53213 50.47546,21.54472 12.64242,3.53597 25.60342,6.11398 38.72353,6.92364 V 138.8 -18.306766 Z" /><path
         id="path5188"
         style="fill:#1f1fad;fill-opacity:1;stroke:none;stroke-width:5.51173;stroke-linecap:round;stroke-linejoin:miter;stroke-miterlimit:2;stroke-dasharray:none;stroke-dashoffset:0.529134;stroke-opacity:1"
         d="m -87.131224,9.6218367 -50.707116,29.6100503 23.17962,40.148133 23.032944,-13.298059 -3.493871,68.257639 h 42.744333 19.444132 42.7443283 L 6.3192847,66.081961 29.352218,79.38002 52.531846,39.231887 1.8252015,9.6218367 C -12.784122,17.448534 -24.527139,23.810448 -42.653244,23.810448 c -18.126105,0 -29.868653,-6.361914 -44.47798,-14.1886113 z"
         sodipodi:nodetypes="cccccccccccczc" /><path
         id="path21070"
         style="fill:#1f1fad;fill-opacity:1;stroke:none;stroke-width:2.82934;stroke-linecap:round;stroke-linejoin:round;stroke-dasharray:none;stroke-opacity:1"
         d="m 57.791219,246.58447 -53.9346887,47.67151 26.7399667,26.74049 24.084835,-24.08535 -15.64659,66.28432 0.297139,0.30386 23.498307,-39.69267 12.189437,46.56874 18.349785,-41.89202 18.34978,41.89202 12.18944,-46.56874 23.49831,39.69267 0.29662,-0.30386 -2.75074,-11.65355 -0.008,-0.0336 -12.88758,-54.59718 24.08483,24.08535 26.73997,-26.74049 -53.93469,-47.67151 c -9.11876,7.06055 -26.68883,13.47205 -35.57819,13.47205 -8.88936,0 -26.459436,-6.4115 -35.578191,-13.47205 z" /><path
         id="path22813"
         style="fill:#1f1fad;fill-opacity:1;stroke:none;stroke-width:2.82934;stroke-linecap:round;stroke-linejoin:round;stroke-dasharray:none;stroke-opacity:1"
         d="m -102.893,413.29146 -53.9347,47.67151 26.73997,26.74049 24.08484,-24.08535 -12.28142,52.02938 -3.36517,14.25494 0.29662,0.30386 23.49883,-39.69267 12.18892,46.56874 18.3503,-41.89202 18.34978,41.89202 12.18892,-46.56874 23.49883,39.69267 0.29662,-0.30386 -2.75074,-11.65355 v -5.1e-4 l -0.05271,-0.22273 -0.08836,-0.3731 -0.47336,-2.00505 -12.28142,-52.02938 24.0853503,24.08535 26.7399697,-26.74049 -53.93469,-47.67151 c -9.11875,7.06055 -26.68883,13.47205 -35.57819,13.47205 -8.88935,0 -26.45945,-6.4115 -35.57819,-13.47205 z" /><rect
         style="opacity:1;fill:#1f1fad;fill-opacity:1;stroke:none;stroke-width:2.07137;stroke-linecap:round;stroke-linejoin:round;stroke-miterlimit:2;stroke-dasharray:none;stroke-dashoffset:0.529134"
         id="rect16415"
         width="20"
         height="20"
         x="-63.020824"
         y="-226.94176" /></g><g
       id="g17827"
       style="fill:#ffffff;fill-opacity:1"><path
         id="path17423"
         style="color:#000000;fill:#ffffff;stroke-width:2.82934;stroke-linecap:round;stroke-linejoin:round;stroke-miterlimit:2;stroke-dashoffset:0.529134;fill-opacity:1"
         d="M 166.74375,-18.306545 151.26773,20.741223 142.32608,122.70043 187.00438,21.974048 205.51001,139.88067 224.01564,21.974048 268.69394,122.70043 259.75229,20.741223 244.27627,-18.306545 h -38.76626 z" /><path
         id="path19238"
         style="fill:#ffffff;fill-opacity:1;stroke:none;stroke-width:2.82934;stroke-linecap:round;stroke-linejoin:round;stroke-miterlimit:2;stroke-dasharray:none;stroke-dashoffset:0.529134;stroke-opacity:1"
         d="m 62.830316,323.80662 -23.498628,39.6929 -0.296694,-0.30382 -5.214216,22.09016 c 15.198658,5.23454 39.370293,9.10304 59.548597,9.10304 20.178295,0 44.349935,-3.8685 59.548595,-9.10304 l -5.21421,-22.09016 -0.2967,0.30382 -23.49863,-39.6929 -12.18913,46.5686 -18.349925,-44.22068 -18.349925,44.22068 z" /><path
         id="path19223"
         style="fill:#ffffff;fill-opacity:1;stroke:none;stroke-width:3.20644;stroke-linecap:round;stroke-linejoin:round;stroke-miterlimit:2;stroke-dasharray:none;stroke-dashoffset:0.529134;stroke-opacity:1"
         d="m 58.840377,245.65746 -1.049109,0.92711 c 9.11878,7.06057 26.68872,13.4718 35.578107,13.4718 8.889395,0 26.459315,-6.41123 35.578105,-13.4718 l -1.04911,-0.92711 c -8.81413,6.85893 -25.89731,13.09915 -34.528995,13.09915 -8.631677,0 -25.71487,-6.24022 -34.528998,-13.09915 z" /><path
         id="path22811"
         style="fill:#ffffff;fill-opacity:1;stroke:none;stroke-width:2.82934;stroke-linecap:round;stroke-linejoin:round;stroke-miterlimit:2;stroke-dasharray:none;stroke-dashoffset:0.529134;stroke-opacity:1"
         d="m -97.854,490.51361 -23.49863,39.69289 -0.29669,-0.30381 -5.21421,22.09016 c 15.19866,5.23454 39.37028,9.10304 59.54859,9.10304 20.1783,0 44.34993,-3.8685 59.5486003,-9.10304 l -5.2142203,-22.09016 -0.29669,0.30381 -23.49863,-39.69289 -12.18914,46.56859 -18.34992,-44.22067 -18.34992,44.22067 z" /><path
         id="path22817"
         style="fill:#ffffff;fill-opacity:1;stroke:none;stroke-width:3.20644;stroke-linecap:round;stroke-linejoin:round;stroke-miterlimit:2;stroke-dasharray:none;stroke-dashoffset:0.529134;stroke-opacity:1"
         d="m -101.84393,412.36444 -1.04911,0.92711 c 9.11877,7.06057 26.68872,13.4718 35.5781,13.4718 8.88939,0 26.45932,-6.41123 35.5781,-13.4718 l -1.04911,-0.92711 c -8.81412,6.85893 -25.89731,13.09916 -34.52899,13.09916 -8.63167,0 -25.71487,-6.24023 -34.52899,-13.09916 z" /><path
         id="path24214"
         style="color:#000000;fill:#ffffff;stroke-width:0.91862;stroke-linecap:square;fill-opacity:1"
         d="m -78.59568,424.79174 1.48489,0.60431 14.99894,6.11474 18.01715,128.13804 c 1.58574,-0.18597 3.16664,-0.38638 4.73856,-0.60383 l -18.40831,-130.91985 -4.57004,-1.86323 c -1.83581,0.31566 -3.53185,0.5013 -4.98066,0.5013 -2.99195,0 -6.97504,-0.73859 -11.28053,-1.97148 z" /><path
         id="path5148"
         style="fill:#ffffff;stroke:none;stroke-width:4.66659;stroke-linecap:round;stroke-linejoin:round;stroke-miterlimit:2;stroke-dashoffset:0.529134;fill-opacity:1"
         d="m 323.20857,392.07587 -7.71214,0.62329 c -10.30116,50.9148 -19.4351,103.09578 -55.36878,158.83612 l -34.71223,-0.73485 c 0.3742,2.50587 0.76017,5.01166 1.16304,7.51751 l 39.46978,0.80559 c 38.8788,-58.16011 46.46071,-112.31441 57.99581,-165.24519 z" /><path
         id="path4850"
         style="fill:#ffffff;stroke:none;stroke-width:4.66659;stroke-linecap:round;stroke-linejoin:round;stroke-miterlimit:2;stroke-dashoffset:0.529134;fill-opacity:1"
         d="m 349.91386,548.98657 -41.91643,8.91363 c 1.92663,2.06962 3.93574,4.10754 6.00983,6.12044 l 0.005,-9.2e-4 c -0.22296,-0.21661 -0.44724,-0.43275 -0.66886,-0.64988 l 36.94004,-7.85218 c 0.0632,1.05281 0.12769,2.10521 0.19368,3.15682 l 0.002,-4.7e-4 c -0.20363,-3.22282 -0.38822,-6.45349 -0.5649,-9.68741 z" /><rect
         style="opacity:1;fill:#ffffff;fill-opacity:1;stroke:none;stroke-width:2.07137;stroke-linecap:round;stroke-linejoin:round;stroke-miterlimit:2;stroke-dasharray:none;stroke-dashoffset:0.529134"
         id="rect16421"
         width="20"
         height="20"
         x="-12.43749"
         y="-226.94176" /></g><g
       id="g16865"
       style="fill:#ce57bc;fill-opacity:1"><g
         id="g16833"
         style="fill:#ce57bc;fill-opacity:1"><path
           id="path5105"
           style="color:#000000;fill:#ce57bc;stroke-width:10.2667;stroke-linecap:round;stroke-miterlimit:2;stroke-dashoffset:0.529134;fill-opacity:1"
           d="M -126.42479,-147.77899 V -43.218446 H 345.58412 V -147.77899 Z m 13.23898,13.23899 h 445.53095 v 78.082569 h -445.53095 v -74.982499 z"
           sodipodi:nodetypes="ccccccccccc" /><g
           id="g16764"
           style="fill:#ce57bc;fill-opacity:1"><path
             style="color:#000000;fill:#ce57bc;stroke-width:4.04987;stroke-linecap:round;stroke-linejoin:round;fill-opacity:1"
             d="m 251.27997,480.92343 c 5.73882,-16.78877 10.35095,-39.57696 18.82949,-41.78253 -7.60282,-3.6872 -10.08565,-10.39966 -12.72292,-15.74477 -3.70061,4.67233 -7.53612,10.71409 -15.74361,12.72303 7.82654,3.93637 7.55068,27.18486 9.63704,44.80427 z"
             id="path5171" /><path
             style="color:#000000;fill:#ce57bc;stroke-width:3.02201;stroke-linecap:round;stroke-linejoin:round;fill-opacity:1"
             d="m 332.09409,523.63451 c -4.28231,-12.5278 -7.72388,-29.53236 -14.05058,-31.17816 5.67324,-2.75139 7.52592,-7.76024 9.49385,-11.74876 2.7614,3.4865 5.62347,7.99487 11.74789,9.49394 -5.84017,2.93732 -5.63432,20.28535 -7.19116,33.43298 z"
             id="path5144" /></g><g
           id="g16799"
           style="fill:#ce57bc;fill-opacity:1"><path
             style="color:#000000;fill:#ce57bc;stroke-width:3.42351;stroke-linecap:round;stroke-linejoin:round;stroke-miterlimit:2;stroke-dashoffset:0.529134;fill-opacity:1"
             d="m 178.69849,91.112753 c -5.27793,13.069837 -7.326,29.012607 -19.04519,36.352977 5.60008,3.98949 10.20124,8.88636 12.49855,15.8763 3.95147,-6.20669 9.61945,-9.8164 16.0309,-12.30031 -9.54493,-10.00568 -7.59537,-25.96082 -9.48426,-39.928967 z"
             id="path17595" /><path
             id="path17601"
             style="color:#000000;fill:#ce57bc;stroke-width:3.42351;stroke-linecap:round;stroke-linejoin:round;stroke-miterlimit:2;stroke-dashoffset:0.529134;fill-opacity:1"
             d="m 132.93679,68.772394 c -0.53861,0.728797 -1.06713,1.472687 -1.58838,2.227342 l -17.62362,44.465634 -0.3152,0.79514 c 0.0557,0.47599 0.1007,0.95785 0.13244,1.44644 5.3775,-5.02187 11.76796,-7.10013 18.59677,-7.9025 -6.74074,-12.074014 -0.86475,-27.035203 0.79799,-41.032056 z" /><path
             id="path17367"
             style="fill:#ce57bc;fill-opacity:1;stroke:none;stroke-width:5.51173;stroke-linecap:round;stroke-linejoin:miter;stroke-miterlimit:2;stroke-dasharray:none;stroke-dashoffset:0.529134;stroke-opacity:1"
             d="m 307.47198,141.14223 5.14918,12.99139 -14.0742,-7.03948 0.26346,15.95026 -13.40535,-8.32215 -1.08424,15.88903 -12.66953,-9.42822 -2.38779,15.777 -11.92093,-10.35581 -3.46871,15.53632 -11.21644,-11.18227 -4.49836,15.21588 -10.46452,-11.98073 -5.79241,14.77772 -8.99718,-12.83474 c 27.95674,-2.8731 65.22536,-14.24951 94.56702,-34.9942 z m -94.72509,35.00987 -7.13442,13.74191 c -0.0336,-0.004 -0.069,-0.006 -0.10254,-0.0105 v -13.16704 c 2.32734,-0.11864 4.74888,-0.31128 7.23696,-0.56443 z m -109.199,-35.00987 -5.149187,12.99139 14.074207,-7.03948 -0.26346,15.95026 13.40534,-8.32215 1.08424,15.88903 12.66953,-9.42822 2.38779,15.777 11.92093,-10.35581 3.46871,15.53632 11.21644,-11.18227 4.49836,15.21588 10.46452,-11.98073 5.79241,14.77772 8.99718,-12.83474 c -27.95674,-2.8731 -65.22536,-14.24951 -94.56701,-34.9942 z m 94.72509,35.00987 7.13441,13.74191 c 0.0336,-0.004 0.069,-0.006 0.10254,-0.0105 v -13.16704 c -2.32734,-0.11864 -4.74888,-0.31128 -7.23695,-0.56443 z" /><path
             style="color:#000000;fill:#ce57bc;stroke-width:3.42351;stroke-linecap:round;stroke-linejoin:round;stroke-miterlimit:2;stroke-dashoffset:0.529134;fill-opacity:1"
             d="m 232.32137,91.112753 c 5.27793,13.069837 7.32601,29.012607 19.04519,36.352977 -5.60008,3.98949 -10.20124,8.88636 -12.49855,15.8763 -3.95146,-6.20669 -9.61945,-9.8164 -16.0309,-12.30031 9.54493,-10.00568 7.59537,-25.96082 9.48426,-39.928967 z"
             id="path17589" /><path
             id="path17583"
             style="color:#000000;fill:#ce57bc;stroke-width:3.42351;stroke-linecap:round;stroke-linejoin:round;stroke-miterlimit:2;stroke-dashoffset:0.529134;fill-opacity:1"
             d="m 278.08323,68.772394 c 1.66274,13.996853 7.53873,28.958042 0.79799,41.032056 6.82881,0.80237 13.21926,2.88063 18.59676,7.9025 0.0318,-0.48892 0.0763,-0.9711 0.13197,-1.44739 l -0.31473,-0.79419 -17.62266,-44.46421 c -0.52162,-0.755207 -1.05034,-1.499445 -1.58933,-2.228766 z" /></g><g
           id="g16792"
           style="fill:#ce57bc;fill-opacity:1"><g
             id="g16781"
             style="fill:#ce57bc;fill-opacity:1"><path
               style="color:#000000;fill:#ce57bc;stroke-width:1.25984;stroke-linecap:round;stroke-linejoin:round;fill-opacity:1"
               d="m 115.53242,293.29371 c -5.45355,-0.84978 -12.68401,-1.02984 -13.81834,-3.50784 -0.71823,2.52853 -2.640214,3.65225 -4.13496,4.74932 1.631522,0.88088 3.68986,1.729 4.74929,4.1346 0.78246,-2.61054 7.91933,-3.78375 13.20401,-5.37608 z"
               id="path20703" /><path
               style="color:#000000;fill:#ce57bc;stroke-width:1.25984;stroke-linecap:round;stroke-linejoin:round;fill-opacity:1"
               d="m 98.685888,273.18527 c -2.493422,4.92403 -4.899009,11.74496 -7.606249,12.05803 2.182821,1.46444 2.657623,3.6396 3.239091,5.4002 1.341936,-1.27946 2.78461,-2.97497 5.399851,-3.23918 -2.240979,-1.55086 -1.151352,-8.70098 -1.032693,-14.21905 z"
               id="path19949" /><path
               style="color:#000000;fill:#ce57bc;stroke-width:1.25984;stroke-linecap:round;stroke-linejoin:round;fill-opacity:1"
               d="m 74.355754,282.99342 c 3.912523,3.89299 9.656246,8.28862 9.11741,10.96011 2.067294,-1.62345 4.28272,-1.40285 6.136833,-1.41181 -0.802159,-1.67163 -1.968875,-3.56764 -1.412,-6.13652 -2.167457,1.65205 -8.630909,-1.59375 -13.842243,-3.41178 z"
               id="path20685" /><path
               style="color:#000000;fill:#ce57bc;stroke-width:1.25984;stroke-linecap:round;stroke-linejoin:round;fill-opacity:1"
               d="m 76.165435,309.16363 c 4.911493,-2.51802 10.866897,-6.6223 13.241117,-5.28431 -0.905163,-2.46778 -0.01076,-4.50661 0.553681,-6.27274 -1.837698,0.24633 -4.001442,0.77005 -6.272515,-0.5534 0.901417,2.57188 -4.182843,7.71598 -7.522283,12.11045 z"
               id="path20691" /><path
               style="color:#000000;fill:#ce57bc;stroke-width:1.25984;stroke-linecap:round;stroke-linejoin:round;fill-opacity:1"
               d="m 101.61401,315.52956 c -0.87705,-5.44923 -2.940129,-12.38144 -0.93394,-14.226 -2.626719,0.0983 -4.289372,-1.38239 -5.794644,-2.46496 -0.3336,1.82387 -0.504152,4.04355 -2.464627,5.7945 2.724563,-0.0625 6.04577,6.36249 9.193211,10.89646 z"
               id="path20697" /></g><path
             id="path19521"
             style="fill:#ce57bc;fill-opacity:1;stroke:none;stroke-width:2.82934;stroke-linecap:round;stroke-linejoin:round;stroke-miterlimit:2;stroke-dasharray:none;stroke-dashoffset:0.529134;stroke-opacity:1"
             d="m 15.05444,284.35869 -5.5987297,4.94839 26.4147757,26.41524 5.27403,-5.27403 z" /><path
             id="path22742"
             style="fill:#ce57bc;fill-opacity:1;stroke:none;stroke-width:2.82934;stroke-linecap:round;stroke-linejoin:round;stroke-miterlimit:2;stroke-dasharray:none;stroke-dashoffset:0.529134;stroke-opacity:1"
             d="m 171.68413,284.35869 5.59873,4.94839 -26.41478,26.41524 -5.27403,-5.27403 z" /><path
             id="path22750"
             style="color:#000000;fill:#ce57bc;stroke-width:0.91862;stroke-linecap:square;fill-opacity:1"
             d="m 122.98977,318.24398 21.96152,33.29143 3.06616,12.99044 -23.19197,-35.15656 -12.49674,47.74873 -18.959457,-40.66796 v -7.96658 l 0.968887,2.08113 16.77246,33.07021 z m -59.240979,0 -21.961517,33.29143 -3.066153,12.99044 23.191966,-35.15656 12.496745,47.74873 18.959451,-40.66796 v -7.96658 l -0.968887,2.08113 -16.772458,33.07021 z" /></g><g
           id="g16760"
           style="fill:#ce57bc;fill-opacity:1"><path
             id="path22821"
             style="fill:#ce57bc;fill-opacity:1;stroke:none;stroke-width:2.82934;stroke-linecap:round;stroke-linejoin:round;stroke-miterlimit:2;stroke-dasharray:none;stroke-dashoffset:0.529134;stroke-opacity:1"
             d="m -145.62986,451.06567 -5.59874,4.94839 26.41477,26.41525 5.27403,-5.27404 z" /><path
             id="path22833"
             style="fill:#ce57bc;fill-opacity:1;stroke:none;stroke-width:2.82934;stroke-linecap:round;stroke-linejoin:round;stroke-miterlimit:2;stroke-dasharray:none;stroke-dashoffset:0.529134;stroke-opacity:1"
             d="m 10.99981,451.06567 5.59874,4.94839 -26.4147797,26.41525 -5.2740303,-5.27404 z" /><path
             id="path22839"
             style="color:#000000;fill:#ce57bc;stroke-width:0.91862;stroke-linecap:square;fill-opacity:1"
             d="m -37.69454,484.95097 21.96152,33.29142 3.06615,12.99045 -23.19196,-35.15656 -12.49675,47.74872 -18.95945,-40.66795 v -7.96659 l 0.96889,2.08113 16.77245,33.07021 z m -59.24098,0 -21.96152,33.29142 -3.06615,12.99045 23.19196,-35.15656 12.49674,47.74872 18.95946,-40.66795 v -7.96659 l -0.96888,2.08113 -16.77247,33.07021 z" /><path
             style="color:#000000;fill:#ce57bc;stroke-width:3.02201;stroke-linecap:round;stroke-linejoin:round;fill-opacity:1"
             d="m -82.86152,483.25869 c 4.28231,-12.52779 7.72388,-29.53235 14.05057,-31.17815 -5.67323,-2.7514 -7.52591,-7.76024 -9.49384,-11.74876 -2.7614,3.48649 -5.62347,7.99486 -11.74789,9.49393 5.84017,2.93733 5.63432,20.28536 7.19116,33.43298 z"
             id="path1123" /></g><g
           id="g16803"
           style="fill:#ce57bc;fill-opacity:1"><path
             id="path8410"
             style="fill:#ce57bc;fill-opacity:1;stroke:none;stroke-width:5.51173;stroke-linecap:round;stroke-linejoin:miter;stroke-miterlimit:2;stroke-dasharray:none;stroke-dashoffset:0.529134;stroke-opacity:1"
             d="m 40.30523,32.092241 6.113317,3.569823 -23.179618,40.148133 -6.130891,-3.539912 z" /><path
             id="path8414"
             style="fill:#ce57bc;fill-opacity:1;stroke:none;stroke-width:5.51173;stroke-linecap:round;stroke-linejoin:miter;stroke-miterlimit:2;stroke-dasharray:none;stroke-dashoffset:0.529134;stroke-opacity:1"
             d="m -125.59413,32.122152 -6.11332,3.569823 23.17962,40.148133 6.13089,-3.539912 z" /></g></g><rect
         style="opacity:1;fill:#ce57bc;fill-opacity:1;stroke:none;stroke-width:2.07137;stroke-linecap:round;stroke-linejoin:round;stroke-miterlimit:2;stroke-dasharray:none;stroke-dashoffset:0.529134"
         id="rect16419"
         width="20"
         height="20"
         x="-37.729156"
         y="-226.94176" /></g><path
       id="path13641"
       style="fill:#ffffff;fill-opacity:1;stroke:none;stroke-width:0.431001;stroke-linecap:round;stroke-linejoin:round;stroke-miterlimit:2;stroke-dasharray:none;stroke-dashoffset:0.529134"
       d="m -0.76943831,19.258234 a 0.89486969,0.89486969 0 0 0 -0.89503579,0.895036 0.89486969,0.89486969 0 0 0 0.89503579,0.895036 0.89486969,0.89486969 0 0 0 0.0666626,-0.0026 0.89486969,0.89486969 0 0 0 0.82837321,-0.892452 0.89486969,0.89486969 0 0 0 -5.1676e-4,-0.02325 0.89486969,0.89486969 0 0 0 -0.89451904,-0.871782 z M -86.50064,21.207469 a 1.1356677,1.1356677 0 0 0 -1.135848,1.135848 1.1356677,1.1356677 0 0 0 1.135848,1.135848 1.1356677,1.1356677 0 0 0 1.135848,-1.135848 1.1356677,1.1356677 0 0 0 -1.135848,-1.135848 z m 95.2608526,4.020944 a 1.1356677,1.1356677 0 0 0 -1.135848,1.135848 1.1356677,1.1356677 0 0 0 1.135848,1.135331 1.1356677,1.1356677 0 0 0 1.1358477,-1.135331 1.1356677,1.1356677 0 0 0 -1.1358477,-1.135848 z m -109.6956326,0.38964 a 0.89486969,0.89486969 0 0 0 -0.89452,0.895036 0.89486969,0.89486969 0 0 0 0.89452,0.894519 0.89486969,0.89486969 0 0 0 0.0672,-0.0021 0.89486969,0.89486969 0 0 0 0.82786,-0.892452 0.89486969,0.89486969 0 0 0 -5.2e-4,-0.02325 0.89486969,0.89486969 0 0 0 -0.89452,-0.871781 z m 74.944265,0.518831 a 1.1356677,1.1356677 0 0 0 -1.135848,1.135848 1.1356677,1.1356677 0 0 0 1.135848,1.135331 1.1356677,1.1356677 0 0 0 1.135848,-1.135331 1.1356677,1.1356677 0 0 0 -1.135848,-1.135848 z m 18.0113041,0.429948 a 1.1356677,1.1356677 0 0 0 -1.135848,1.135848 1.1356677,1.1356677 0 0 0 1.135848,1.135331 1.1356677,1.1356677 0 0 0 1.1353312,-1.135331 1.1356677,1.1356677 0 0 0 -1.1353312,-1.135848 z m -62.6215011,0.773596 a 1.1356677,1.1356677 0 0 0 -1.135848,1.135332 1.1356677,1.1356677 0 0 0 1.135848,1.135848 1.1356677,1.1356677 0 0 0 1.135848,-1.135848 1.1356677,1.1356677 0 0 0 -1.135848,-1.135332 z m 94.1927,0.816488 a 1.1356677,1.1356677 0 0 0 -1.135331,1.135331 1.1356677,1.1356677 0 0 0 1.135331,1.135848 1.1356677,1.1356677 0 0 0 1.135848,-1.135848 1.1356677,1.1356677 0 0 0 -1.135848,-1.135331 z m -70.478902,0.570508 a 1.1356677,1.1356677 0 0 0 -1.135331,1.135848 1.1356677,1.1356677 0 0 0 1.135331,1.135331 1.1356677,1.1356677 0 0 0 1.135848,-1.135331 1.1356677,1.1356677 0 0 0 -1.135848,-1.135848 z m -35.819519,1.928047 a 1.1356677,1.1356677 0 0 0 -1.135331,1.135332 1.1356677,1.1356677 0 0 0 1.135331,1.135848 1.1356677,1.1356677 0 0 0 1.135848,-1.135848 1.1356677,1.1356677 0 0 0 -1.135848,-1.135332 z m -8.698694,0.93276 a 1.1356677,1.1356677 0 0 0 -1.135331,1.135848 1.1356677,1.1356677 0 0 0 1.135331,1.135331 1.1356677,1.1356677 0 0 0 1.135848,-1.135331 1.1356677,1.1356677 0 0 0 -1.135848,-1.135848 z m -16.740063,1.33842 a 1.1356677,1.1356677 0 0 0 -1.13585,1.135848 1.1356677,1.1356677 0 0 0 1.13585,1.135331 1.1356677,1.1356677 0 0 0 1.13533,-1.135331 1.1356677,1.1356677 0 0 0 -1.13533,-1.135848 z m 53.486658,1.498099 a 1.1356677,1.1356677 0 0 0 -1.135848,1.135332 1.1356677,1.1356677 0 0 0 1.135848,1.135848 1.1356677,1.1356677 0 0 0 1.135331,-1.135848 1.1356677,1.1356677 0 0 0 -1.135331,-1.135332 z M 4.5175775,34.784418 A 0.98158991,0.98158991 0 0 0 3.536242,35.766271 0.98158991,0.98158991 0 0 0 4.5175775,36.747606 0.98158991,0.98158991 0 0 0 5.4994297,35.766271 0.98158991,0.98158991 0 0 0 4.5175775,34.784418 Z m -18.2733035,3.643706 a 0.98158991,0.98158991 0 0 0 -0.981852,0.981852 0.98158991,0.98158991 0 0 0 0.981852,0.981335 0.98158991,0.98158991 0 0 0 0.981335,-0.981335 0.98158991,0.98158991 0 0 0 -0.981335,-0.981852 z m -16.692521,0.747241 a 1.1356677,1.1356677 0 0 0 -1.135331,1.135848 1.1356677,1.1356677 0 0 0 1.135331,1.135848 1.1356677,1.1356677 0 0 0 1.135848,-1.135848 1.1356677,1.1356677 0 0 0 -1.135848,-1.135848 z m 48.655945,1.836063 a 1.1356677,1.1356677 0 0 0 -1.135332,1.135848 1.1356677,1.1356677 0 0 0 1.135332,1.135332 1.1356677,1.1356677 0 0 0 1.135848,-1.135332 1.1356677,1.1356677 0 0 0 -1.135848,-1.135848 z m -113.855583,0.132809 a 0.98158991,0.98158991 0 0 0 -0.981852,0.981852 0.98158991,0.98158991 0 0 0 0.981852,0.981336 0.98158991,0.98158991 0 0 0 0.981335,-0.981336 0.98158991,0.98158991 0 0 0 -0.981335,-0.981852 z m 19.04845,0.640788 a 1.1356677,1.1356677 0 0 0 -1.135848,1.135331 1.1356677,1.1356677 0 0 0 1.135848,1.135848 1.1356677,1.1356677 0 0 0 1.135848,-1.135848 1.1356677,1.1356677 0 0 0 -1.135848,-1.135331 z m -9.901205,0.589111 a 1.1356677,1.1356677 0 0 0 -1.135848,1.135848 1.1356677,1.1356677 0 0 0 1.135848,1.135848 1.1356677,1.1356677 0 0 0 1.135848,-1.135848 1.1356677,1.1356677 0 0 0 -1.135848,-1.135848 z m 41.429513,0.662492 a 1.1356677,1.1356677 0 0 0 -1.135848,1.135848 1.1356677,1.1356677 0 0 0 1.135848,1.135848 1.1356677,1.1356677 0 0 0 1.135848,-1.135848 1.1356677,1.1356677 0 0 0 -1.135848,-1.135848 z M 5.2612014,45.326927 A 1.1356677,1.1356677 0 0 0 4.1258701,46.462775 1.1356677,1.1356677 0 0 0 5.2612014,47.598106 1.1356677,1.1356677 0 0 0 6.3970493,46.462775 1.1356677,1.1356677 0 0 0 5.2612014,45.326927 Z M -102.23508,46.822443 a 0.98158991,0.98158991 0 0 0 -0.98134,0.981852 0.98158991,0.98158991 0 0 0 0.98134,0.981336 0.98158991,0.98158991 0 0 0 0.98185,-0.981336 0.98158991,0.98158991 0 0 0 -0.98185,-0.981852 z m 42.854749,4.164087 a 1.1356677,1.1356677 0 0 0 -1.135848,1.135331 1.1356677,1.1356677 0 0 0 1.135848,1.135848 1.1356677,1.1356677 0 0 0 1.135331,-1.135848 1.1356677,1.1356677 0 0 0 -1.135331,-1.135331 z m 42.333333,0 a 1.1356677,1.1356677 0 0 0 -1.135848,1.135331 1.1356677,1.1356677 0 0 0 1.135848,1.135848 1.1356677,1.1356677 0 0 0 1.135331,-1.135848 1.1356677,1.1356677 0 0 0 -1.135331,-1.135331 z m 14.8750613,1.523938 a 0.98158991,0.98158991 0 0 0 -0.9818522,0.981852 0.98158991,0.98158991 0 0 0 0.9818522,0.981336 0.98158991,0.98158991 0 0 0 0.9813355,-0.981336 0.98158991,0.98158991 0 0 0 -0.9813355,-0.981852 z m 13.2462197,0.176734 a 1.1356677,1.1356677 0 0 0 -1.1358477,1.135848 1.1356677,1.1356677 0 0 0 1.1358477,1.135331 1.1356677,1.1356677 0 0 0 1.135331,-1.135331 1.1356677,1.1356677 0 0 0 -1.135331,-1.135848 z m -47.852376,2.094962 a 0.98158991,0.98158991 0 0 0 -0.981336,0.981336 0.98158991,0.98158991 0 0 0 0.981336,0.981852 0.98158991,0.98158991 0 0 0 0.07338,-0.0031 0.98158991,0.98158991 0 0 0 0.908472,-0.978751 0.98158991,0.98158991 0 0 0 -5.17e-4,-0.02532 0.98158991,0.98158991 0 0 0 -0.981335,-0.956014 z m -56.409994,0.743107 a 0.98158991,0.98158991 0 0 0 -0.981335,0.981852 0.98158991,0.98158991 0 0 0 0.981335,0.981336 0.98158991,0.98158991 0 0 0 0.07338,-0.0026 0.98158991,0.98158991 0 0 0 0.907955,-0.978752 0.98158991,0.98158991 0 0 0 0,-0.02532 0.98158991,0.98158991 0 0 0 -0.981336,-0.956531 z m 17.932756,0.752926 a 1.1356677,1.1356677 0 0 0 -1.135848,1.135331 1.1356677,1.1356677 0 0 0 1.135848,1.135848 1.1356677,1.1356677 0 0 0 1.135331,-1.135848 1.1356677,1.1356677 0 0 0 -1.135331,-1.135331 z m 58.208333,5.291666 a 1.1356677,1.1356677 0 0 0 -1.135848,1.135332 1.1356677,1.1356677 0 0 0 1.135848,1.135848 1.1356677,1.1356677 0 0 0 1.135331,-1.135848 1.1356677,1.1356677 0 0 0 -1.135331,-1.135332 z m -46.412154,3.407028 a 0.89486969,0.89486969 0 0 0 -0.894519,0.894519 0.89486969,0.89486969 0 0 0 0.894519,0.895036 0.89486969,0.89486969 0 0 0 0.895036,-0.895036 0.89486969,0.89486969 0 0 0 -0.895036,-0.894519 z m 35.828821,1.884639 a 1.1356677,1.1356677 0 0 0 -1.132748,1.050582 1.1356677,1.1356677 0 0 0 -0.0031,0.08475 1.1356677,1.1356677 0 0 0 1.135848,1.135848 1.1356677,1.1356677 0 0 0 1.135331,-1.135848 1.1356677,1.1356677 0 0 0 -1.135331,-1.135331 z m -18.922876,0.240812 a 0.89486969,0.89486969 0 0 0 -0.895036,0.894519 0.89486969,0.89486969 0 0 0 0.895036,0.895036 0.89486969,0.89486969 0 0 0 0.895035,-0.895036 0.89486969,0.89486969 0 0 0 -0.895035,-0.894519 z m 46.45504554,0.01034 a 1.1356677,1.1356677 0 0 0 -1.13533124,1.135844 1.1356677,1.1356677 0 0 0 1.13533124,1.135848 1.1356677,1.1356677 0 0 0 1.13584796,-1.135848 1.1356677,1.1356677 0 0 0 -1.13584796,-1.135848 z M -83.185597,70.176573 a 1.1356677,1.1356677 0 0 0 -1.135848,1.135848 1.1356677,1.1356677 0 0 0 1.135848,1.135331 1.1356677,1.1356677 0 0 0 1.135848,-1.135331 1.1356677,1.1356677 0 0 0 -1.135848,-1.135848 z m 69.989527,1.095541 a 0.89486969,0.89486969 0 0 0 -0.894519,0.894519 0.89486969,0.89486969 0 0 0 0.894519,0.895035 0.89486969,0.89486969 0 0 0 0.895036,-0.895035 0.89486969,0.89486969 0 0 0 -0.895036,-0.894519 z m -59.270801,0.837675 a 1.1356677,1.1356677 0 0 0 -1.135848,1.135848 1.1356677,1.1356677 0 0 0 1.135848,1.135331 1.1356677,1.1356677 0 0 0 0.08475,-0.0031 1.1356677,1.1356677 0 0 0 1.050582,-1.13223 1.1356677,1.1356677 0 0 0 0,-0.02946 1.1356677,1.1356677 0 0 0 -1.135331,-1.106392 z m 34.045467,3.928959 a 1.1356677,1.1356677 0 0 0 -1.135848,1.135848 1.1356677,1.1356677 0 0 0 1.135848,1.135331 1.1356677,1.1356677 0 0 0 1.135848,-1.135331 1.1356677,1.1356677 0 0 0 -1.135848,-1.135848 z m -17.769458,0.976168 a 0.89486969,0.89486969 0 0 0 -0.894519,0.895035 0.89486969,0.89486969 0 0 0 0.894519,0.894519 0.89486969,0.89486969 0 0 0 0.895036,-0.894519 0.89486969,0.89486969 0 0 0 -0.895036,-0.895035 z m 33.852197,0.429947 a 1.1356677,1.1356677 0 0 0 -1.135848,1.135848 1.1356677,1.1356677 0 0 0 1.135848,1.135332 1.1356677,1.1356677 0 0 0 1.135332,-1.135332 1.1356677,1.1356677 0 0 0 -1.135332,-1.135848 z m 8.007264,6.319511 a 0.89486969,0.89486969 0 0 0 -0.895036,0.894519 0.89486969,0.89486969 0 0 0 0.895036,0.895036 0.89486969,0.89486969 0 0 0 0.894519,-0.895036 0.89486969,0.89486969 0 0 0 -0.894519,-0.894519 z m -54.284542,0.291455 a 0.89486969,0.89486969 0 0 0 -0.894519,0.895036 0.89486969,0.89486969 0 0 0 0.894519,0.895036 0.89486969,0.89486969 0 0 0 0.895035,-0.895036 0.89486969,0.89486969 0 0 0 -0.895035,-0.895036 z m 68.30332435,2.969328 a 0.98158991,0.98158991 0 0 0 -0.98133545,0.981852 0.98158991,0.98158991 0 0 0 0.98133545,0.981336 0.98158991,0.98158991 0 0 0 0.98185221,-0.981336 0.98158991,0.98158991 0 0 0 -0.98185221,-0.981852 z m -43.19271235,1.00304 a 1.1356677,1.1356677 0 0 0 -1.135848,1.135848 1.1356677,1.1356677 0 0 0 1.135848,1.135331 1.1356677,1.1356677 0 0 0 1.135331,-1.135331 1.1356677,1.1356677 0 0 0 -1.135331,-1.135848 z m -41.789181,0.197404 a 0.89486969,0.89486969 0 0 0 -0.894519,0.895036 0.89486969,0.89486969 0 0 0 0.894519,0.894519 0.89486969,0.89486969 0 0 0 0.06718,-0.0021 0.89486969,0.89486969 0 0 0 0.827856,-0.892452 0.89486969,0.89486969 0 0 0 -5.17e-4,-0.02325 0.89486969,0.89486969 0 0 0 -0.894519,-0.871781 z m 56.590344,0.162264 a 0.98158991,0.98158991 0 0 0 -0.981335,0.981852 0.98158991,0.98158991 0 0 0 0.981335,0.981335 0.98158991,0.98158991 0 0 0 0.981853,-0.981335 0.98158991,0.98158991 0 0 0 -0.981853,-0.981852 z m -48.12161,4.956286 a 1.1356677,1.1356677 0 0 0 -1.135848,1.135848 1.1356677,1.1356677 0 0 0 1.135848,1.135337 1.1356677,1.1356677 0 0 0 1.135848,-1.135337 1.1356677,1.1356677 0 0 0 -1.135848,-1.135848 z m 19.397266,0.337964 a 1.1356677,1.1356677 0 0 0 -1.135332,1.135848 1.1356677,1.1356677 0 0 0 1.135332,1.135333 1.1356677,1.1356677 0 0 0 1.135847,-1.135333 1.1356677,1.1356677 0 0 0 -1.135847,-1.135848 z m 50.0129677,1.614371 a 1.1356677,1.1356677 0 0 0 -1.1358479,1.13533 1.1356677,1.1356677 0 0 0 1.1358479,1.13585 1.1356677,1.1356677 0 0 0 1.1353313,-1.13585 1.1356677,1.1356677 0 0 0 -1.1353313,-1.13533 z m -29.9671637,3.69177 a 1.1356677,1.1356677 0 0 0 -1.135848,1.135844 1.1356677,1.1356677 0 0 0 1.135848,1.13585 1.1356677,1.1356677 0 0 0 1.135848,-1.13585 1.1356677,1.1356677 0 0 0 -1.135848,-1.135844 z m 16.439824,2.191084 a 0.98158991,0.98158991 0 0 0 -0.981852,0.98185 0.98158991,0.98158991 0 0 0 0.981852,0.98133 0.98158991,0.98158991 0 0 0 0.981335,-0.98133 0.98158991,0.98158991 0 0 0 -0.981335,-0.98185 z m -50.591227,2.74815 a 1.1356677,1.1356677 0 0 0 -1.135848,1.13585 1.1356677,1.1356677 0 0 0 1.135848,1.13533 1.1356677,1.1356677 0 0 0 1.135848,-1.13533 1.1356677,1.1356677 0 0 0 -1.135848,-1.13585 z m 76.9307046,0.092 a 1.1356677,1.1356677 0 0 0 -1.135848,1.13585 1.1356677,1.1356677 0 0 0 1.135848,1.13533 1.1356677,1.1356677 0 0 0 1.1353312,-1.13533 1.1356677,1.1356677 0 0 0 -1.1353312,-1.13585 z m -55.5568156,0.33797 a 1.1356677,1.1356677 0 0 0 -1.135332,1.13585 1.1356677,1.1356677 0 0 0 1.135332,1.13533 1.1356677,1.1356677 0 0 0 1.135848,-1.13533 1.1356677,1.1356677 0 0 0 -1.135848,-1.13585 z m 44.2081543,3.18172 a 0.98158991,0.98158991 0 0 0 -0.9818522,0.98133 0.98158991,0.98158991 0 0 0 0.9818522,0.98185 0.98158991,0.98158991 0 0 0 0.9813355,-0.98185 0.98158991,0.98158991 0 0 0 -0.9813355,-0.98133 z m -27.3420003,1.44332 a 1.1356677,1.1356677 0 0 0 -1.135848,1.13533 1.1356677,1.1356677 0 0 0 1.135848,1.13585 1.1356677,1.1356677 0 0 0 1.135331,-1.13585 1.1356677,1.1356677 0 0 0 -1.135331,-1.13533 z m -55.047803,0.16898 a 1.1356677,1.1356677 0 0 0 -1.135848,1.13585 1.1356677,1.1356677 0 0 0 1.135848,1.13533 1.1356677,1.1356677 0 0 0 1.135331,-1.13533 1.1356677,1.1356677 0 0 0 -1.135331,-1.13585 z m 26.801465,2.04432 a 1.1356677,1.1356677 0 0 0 -1.135331,1.13585 1.1356677,1.1356677 0 0 0 1.135331,1.13533 1.1356677,1.1356677 0 0 0 1.135848,-1.13533 1.1356677,1.1356677 0 0 0 -1.135848,-1.13585 z m -16.116846,3.69176 a 1.1356677,1.1356677 0 0 0 -1.135331,1.13585 1.1356677,1.1356677 0 0 0 1.135331,1.13585 1.1356677,1.1356677 0 0 0 1.135848,-1.13585 1.1356677,1.1356677 0 0 0 -1.135848,-1.13585 z m 29.981633,2.72594 a 1.1356677,1.1356677 0 0 0 -1.135332,1.13533 1.1356677,1.1356677 0 0 0 1.135332,1.13584 1.1356677,1.1356677 0 0 0 1.135848,-1.13584 1.1356677,1.1356677 0 0 0 -1.135848,-1.13533 z m 8.618078,0.13952 a 0.89486969,0.89486969 0 0 0 -0.895036,0.89504 0.89486969,0.89486969 0 0 0 0.895036,0.89452 0.89486969,0.89486969 0 0 0 0.894519,-0.89452 0.89486969,0.89486969 0 0 0 -0.894519,-0.89504 z m 22.272543,0.99581 a 1.1356677,1.1356677 0 0 0 -1.135848,1.13584 1.1356677,1.1356677 0 0 0 1.135848,1.13586 1.1356677,1.1356677 0 0 0 1.135331,-1.13586 1.1356677,1.1356677 0 0 0 -1.135331,-1.13584 z m 13.6275918,0.90847 a 1.1356677,1.1356677 0 0 0 -1.1353312,1.13585 1.1356677,1.1356677 0 0 0 1.1353312,1.13585 1.1356677,1.1356677 0 0 0 1.135848,-1.13585 1.1356677,1.1356677 0 0 0 -1.135848,-1.13585 z m -63.0850388,0.14521 a 1.1356677,1.1356677 0 0 0 -1.135848,1.13585 1.1356677,1.1356677 0 0 0 1.135848,1.13533 1.1356677,1.1356677 0 0 0 1.135848,-1.13533 1.1356677,1.1356677 0 0 0 -1.135848,-1.13585 z m 38.385254,0.68161 a 1.1356677,1.1356677 0 0 0 -1.135331,1.13534 1.1356677,1.1356677 0 0 0 1.135331,1.13585 1.1356677,1.1356677 0 0 0 1.135848,-1.13585 1.1356677,1.1356677 0 0 0 -1.135848,-1.13534 z m -55.193013,4.54236 a 1.1356677,1.1356677 0 0 0 -1.135848,1.13585 1.1356677,1.1356677 0 0 0 1.135848,1.13533 1.1356677,1.1356677 0 0 0 1.135331,-1.13533 1.1356677,1.1356677 0 0 0 -1.135331,-1.13585 z" /><path
       id="path15442"
       style="fill:#ffffff;fill-opacity:1;stroke:none;stroke-width:0.431001;stroke-linecap:round;stroke-linejoin:round;stroke-miterlimit:2;stroke-dasharray:none;stroke-dashoffset:0.529134"
       d="m 126.18239,253.3143 a 1.1356677,1.1356677 0 0 0 -1.13584,1.13584 1.1356677,1.1356677 0 0 0 1.13584,1.13534 1.1356677,1.1356677 0 0 0 1.13534,-1.13534 1.1356677,1.1356677 0 0 0 -1.13534,-1.13584 z m -62.621497,0.77359 a 1.1356677,1.1356677 0 0 0 -1.135848,1.13533 1.1356677,1.1356677 0 0 0 1.135848,1.13585 1.1356677,1.1356677 0 0 0 1.135848,-1.13585 1.1356677,1.1356677 0 0 0 -1.135848,-1.13533 z m -12.105721,3.31505 a 1.1356677,1.1356677 0 0 0 -1.135331,1.13533 1.1356677,1.1356677 0 0 0 1.135331,1.13584 1.1356677,1.1356677 0 0 0 1.135848,-1.13584 1.1356677,1.1356677 0 0 0 -1.135848,-1.13533 z m 28.0479,3.76927 a 1.1356677,1.1356677 0 0 0 -1.135848,1.13534 1.1356677,1.1356677 0 0 0 1.135848,1.13584 1.1356677,1.1356677 0 0 0 1.135332,-1.13584 1.1356677,1.1356677 0 0 0 -1.135332,-1.13534 z m 59.176748,0.35967 a 0.98158991,0.98158991 0 0 0 -0.98133,0.98185 0.98158991,0.98158991 0 0 0 0.98133,0.98134 0.98158991,0.98158991 0 0 0 0.98185,-0.98134 0.98158991,0.98158991 0 0 0 -0.98185,-0.98185 z m -18.2733,3.64371 a 0.98158991,0.98158991 0 0 0 -0.98185,0.98185 0.98158991,0.98158991 0 0 0 0.98185,0.98134 0.98158991,0.98158991 0 0 0 0.98133,-0.98134 0.98158991,0.98158991 0 0 0 -0.98133,-0.98185 z m -29.39614,0.14779 a 1.1356677,1.1356677 0 0 0 -1.135331,1.13585 1.1356677,1.1356677 0 0 0 1.135331,1.13533 1.1356677,1.1356677 0 0 0 1.135848,-1.13533 1.1356677,1.1356677 0 0 0 -1.135848,-1.13585 z m 12.70362,0.59945 a 1.1356677,1.1356677 0 0 0 -1.13533,1.13585 1.1356677,1.1356677 0 0 0 1.13533,1.13584 1.1356677,1.1356677 0 0 0 1.13585,-1.13584 1.1356677,1.1356677 0 0 0 -1.13585,-1.13585 z m -34.596857,0.5457 a 1.1356677,1.1356677 0 0 0 -1.135848,1.13585 1.1356677,1.1356677 0 0 0 1.135848,1.13533 1.1356677,1.1356677 0 0 0 1.135848,-1.13533 1.1356677,1.1356677 0 0 0 -1.135848,-1.13585 z M 38.51436,267.8917 a 0.98158991,0.98158991 0 0 0 -0.981852,0.98185 0.98158991,0.98158991 0 0 0 0.981852,0.98134 0.98158991,0.98158991 0 0 0 0.981335,-0.98134 0.98158991,0.98158991 0 0 0 -0.981335,-0.98185 z m 19.04845,0.64079 a 1.1356677,1.1356677 0 0 0 -1.135848,1.13533 1.1356677,1.1356677 0 0 0 1.135848,1.13585 1.1356677,1.1356677 0 0 0 1.135848,-1.13585 1.1356677,1.1356677 0 0 0 -1.135848,-1.13533 z m 93.44856,0.24546 a 1.1356677,1.1356677 0 0 0 -1.13533,1.13585 1.1356677,1.1356677 0 0 0 1.13533,1.13533 1.1356677,1.1356677 0 0 0 1.13585,-1.13533 1.1356677,1.1356677 0 0 0 -1.13585,-1.13585 z M 47.661605,269.1216 a 1.1356677,1.1356677 0 0 0 -1.135848,1.13585 1.1356677,1.1356677 0 0 0 1.135848,1.13585 1.1356677,1.1356677 0 0 0 1.135848,-1.13585 1.1356677,1.1356677 0 0 0 -1.135848,-1.13585 z m 91.761845,2.95279 a 1.1356677,1.1356677 0 0 0 -1.13534,1.13585 1.1356677,1.1356677 0 0 0 1.13534,1.13533 1.1356677,1.1356677 0 0 0 1.13584,-1.13533 1.1356677,1.1356677 0 0 0 -1.13584,-1.13585 z m -107.496285,1.49552 a 0.98158991,0.98158991 0 0 0 -0.981335,0.98185 0.98158991,0.98158991 0 0 0 0.981335,0.98134 0.98158991,0.98158991 0 0 0 0.981852,-0.98134 0.98158991,0.98158991 0 0 0 -0.981852,-0.98185 z m 55.465865,2.32699 a 1.1356677,1.1356677 0 0 0 -1.135848,1.13585 1.1356677,1.1356677 0 0 0 1.135848,1.13584 1.1356677,1.1356677 0 0 0 1.135848,-1.13584 1.1356677,1.1356677 0 0 0 -1.135848,-1.13585 z m 70.81118,1.54926 a 1.1356677,1.1356677 0 0 0 -1.13585,1.13584 1.1356677,1.1356677 0 0 0 1.13585,1.13534 1.1356677,1.1356677 0 0 0 1.13585,-1.13534 1.1356677,1.1356677 0 0 0 -1.13585,-1.13584 z m -83.422296,0.28783 a 1.1356677,1.1356677 0 0 0 -1.135848,1.13534 1.1356677,1.1356677 0 0 0 1.135848,1.13584 1.1356677,1.1356677 0 0 0 1.135331,-1.13584 1.1356677,1.1356677 0 0 0 -1.135331,-1.13534 z m 42.333336,0 a 1.1356677,1.1356677 0 0 0 -1.13585,1.13534 1.1356677,1.1356677 0 0 0 1.13585,1.13584 1.1356677,1.1356677 0 0 0 1.13533,-1.13584 1.1356677,1.1356677 0 0 0 -1.13533,-1.13534 z m 14.87506,1.52394 a 0.98158991,0.98158991 0 0 0 -0.98185,0.98185 0.98158991,0.98158991 0 0 0 0.98185,0.98134 0.98158991,0.98158991 0 0 0 0.98133,-0.98134 0.98158991,0.98158991 0 0 0 -0.98133,-0.98185 z m 13.24622,0.17674 a 1.1356677,1.1356677 0 0 0 -1.13585,1.13584 1.1356677,1.1356677 0 0 0 1.13585,1.13533 1.1356677,1.1356677 0 0 0 1.13533,-1.13533 1.1356677,1.1356677 0 0 0 -1.13533,-1.13584 z m -37.94911,1.27744 a 1.1356677,1.1356677 0 0 0 -1.13584,1.13585 1.1356677,1.1356677 0 0 0 1.13584,1.13533 1.1356677,1.1356677 0 0 0 1.13585,-1.13533 1.1356677,1.1356677 0 0 0 -1.13585,-1.13585 z m -66.313262,1.56011 v 5.2e-4 a 0.98158991,0.98158991 0 0 0 -0.981335,0.98185 0.98158991,0.98158991 0 0 0 0.981335,0.98133 0.98158991,0.98158991 0 0 0 0.07338,-0.003 0.98158991,0.98158991 0 0 0 0.907955,-0.97875 0.98158991,0.98158991 0 0 0 0,-5.2e-4 0.98158991,0.98158991 0 0 0 0,-5.1e-4 0.98158991,0.98158991 0 0 0 0,-5.2e-4 0.98158991,0.98158991 0 0 0 0,-5.2e-4 0.98158991,0.98158991 0 0 0 0,-5.1e-4 0.98158991,0.98158991 0 0 0 0,-5.2e-4 0.98158991,0.98158991 0 0 0 0,-5.2e-4 0.98158991,0.98158991 0 0 0 0,-5.1e-4 0.98158991,0.98158991 0 0 0 0,-5.2e-4 0.98158991,0.98158991 0 0 0 0,-5.2e-4 0.98158991,0.98158991 0 0 0 0,-5.1e-4 0.98158991,0.98158991 0 0 0 0,-5.2e-4 0.98158991,0.98158991 0 0 0 0,-5.2e-4 0.98158991,0.98158991 0 0 0 0,-5.1e-4 0.98158991,0.98158991 0 0 0 0,-5.2e-4 0.98158991,0.98158991 0 0 0 0,-5.2e-4 0.98158991,0.98158991 0 0 0 0,-5.1e-4 0.98158991,0.98158991 0 0 0 0,-5.2e-4 0.98158991,0.98158991 0 0 0 0,-5.2e-4 0.98158991,0.98158991 0 0 0 0,-5.1e-4 0.98158991,0.98158991 0 0 0 0,-5.2e-4 0.98158991,0.98158991 0 0 0 0,-5.2e-4 0.98158991,0.98158991 0 0 0 0,-5.1e-4 0.98158991,0.98158991 0 0 0 0,-5.2e-4 0.98158991,0.98158991 0 0 0 0,-5.2e-4 0.98158991,0.98158991 0 0 0 0,-5.1e-4 0.98158991,0.98158991 0 0 0 0,-5.2e-4 0.98158991,0.98158991 0 0 0 0,-5.2e-4 0.98158991,0.98158991 0 0 0 0,-5.2e-4 0.98158991,0.98158991 0 0 0 0,-5.1e-4 0.98158991,0.98158991 0 0 0 0,-5.2e-4 0.98158991,0.98158991 0 0 0 0,-5.2e-4 0.98158991,0.98158991 0 0 0 0,-5.1e-4 0.98158991,0.98158991 0 0 0 0,-5.2e-4 0.98158991,0.98158991 0 0 0 0,-5.2e-4 0.98158991,0.98158991 0 0 0 0,-5.1e-4 0.98158991,0.98158991 0 0 0 0,-5.2e-4 0.98158991,0.98158991 0 0 0 0,-5.2e-4 0.98158991,0.98158991 0 0 0 0,-5.1e-4 0.98158991,0.98158991 0 0 0 0,-5.2e-4 0.98158991,0.98158991 0 0 0 0,-5.2e-4 0.98158991,0.98158991 0 0 0 0,-5.1e-4 0.98158991,0.98158991 0 0 0 0,-5.2e-4 0.98158991,0.98158991 0 0 0 0,-5.2e-4 0.98158991,0.98158991 0 0 0 0,-5.1e-4 0.98158991,0.98158991 0 0 0 0,-5.2e-4 0.98158991,0.98158991 0 0 0 0,-5.2e-4 0.98158991,0.98158991 0 0 0 0,-5.1e-4 0.98158991,0.98158991 0 0 0 0,-5.2e-4 0.98158991,0.98158991 0 0 0 -0.981336,-0.95653 z m 17.932756,0.75344 a 1.1356677,1.1356677 0 0 0 -1.135848,1.13533 1.1356677,1.1356677 0 0 0 1.135848,1.13585 1.1356677,1.1356677 0 0 0 1.135331,-1.13585 1.1356677,1.1356677 0 0 0 -1.135331,-1.13533 z m 58.208336,5.29167 a 1.1356677,1.1356677 0 0 0 -1.13585,1.13533 1.1356677,1.1356677 0 0 0 1.13585,1.13585 1.1356677,1.1356677 0 0 0 1.13533,-1.13585 1.1356677,1.1356677 0 0 0 -1.13533,-1.13533 z m 28.07322,1.90531 a 1.1356677,1.1356677 0 0 0 -1.13533,1.13533 1.1356677,1.1356677 0 0 0 1.13533,1.13585 1.1356677,1.1356677 0 0 0 1.13585,-1.13585 1.1356677,1.1356677 0 0 0 -1.13585,-1.13533 z m -74.485377,1.50171 a 0.89486969,0.89486969 0 0 0 -0.894519,0.89452 0.89486969,0.89486969 0 0 0 0.894519,0.89504 0.89486969,0.89486969 0 0 0 0.895036,-0.89504 0.89486969,0.89486969 0 0 0 -0.895036,-0.89452 z m 63.360987,2.13579 a 1.1356677,1.1356677 0 0 0 -1.13533,1.13585 1.1356677,1.1356677 0 0 0 1.13533,1.13585 1.1356677,1.1356677 0 0 0 1.13585,-1.13585 1.1356677,1.1356677 0 0 0 -1.13585,-1.13585 z m -86.4495,1.86345 a 1.1356677,1.1356677 0 0 0 -1.135848,1.13585 1.1356677,1.1356677 0 0 0 1.135848,1.13533 1.1356677,1.1356677 0 0 0 1.135848,-1.13533 1.1356677,1.1356677 0 0 0 -1.135848,-1.13585 z m 73.35159,2.29599 a 0.89486969,0.89486969 0 0 0 -0.89451,0.89452 0.89486969,0.89486969 0 0 0 0.89451,0.89503 0.89486969,0.89486969 0 0 0 0.89504,-0.89503 0.89486969,0.89486969 0 0 0 -0.89504,-0.89452 z m -59.270796,0.83767 a 1.1356677,1.1356677 0 0 0 -1.135848,1.13585 1.1356677,1.1356677 0 0 0 1.135848,1.13533 1.1356677,1.1356677 0 0 0 0.08475,-0.003 1.1356677,1.1356677 0 0 0 1.050582,-1.13223 1.1356677,1.1356677 0 0 0 0,-5.2e-4 1.1356677,1.1356677 0 0 0 0,-5.1e-4 1.1356677,1.1356677 0 0 0 0,-5.2e-4 1.1356677,1.1356677 0 0 0 0,-5.2e-4 1.1356677,1.1356677 0 0 0 0,-5.1e-4 1.1356677,1.1356677 0 0 0 0,-5.2e-4 1.1356677,1.1356677 0 0 0 0,-5.2e-4 1.1356677,1.1356677 0 0 0 0,-5.1e-4 1.1356677,1.1356677 0 0 0 0,-5.2e-4 1.1356677,1.1356677 0 0 0 0,-5.2e-4 1.1356677,1.1356677 0 0 0 0,-5.1e-4 1.1356677,1.1356677 0 0 0 0,-5.2e-4 1.1356677,1.1356677 0 0 0 0,-5.2e-4 1.1356677,1.1356677 0 0 0 0,-5.1e-4 1.1356677,1.1356677 0 0 0 0,-5.2e-4 1.1356677,1.1356677 0 0 0 0,-5.2e-4 1.1356677,1.1356677 0 0 0 0,-5.1e-4 1.1356677,1.1356677 0 0 0 0,-5.2e-4 1.1356677,1.1356677 0 0 0 0,-5.2e-4 1.1356677,1.1356677 0 0 0 0,-5.1e-4 1.1356677,1.1356677 0 0 0 0,-5.2e-4 1.1356677,1.1356677 0 0 0 0,-5.2e-4 1.1356677,1.1356677 0 0 0 0,-5.1e-4 1.1356677,1.1356677 0 0 0 0,-5.2e-4 1.1356677,1.1356677 0 0 0 0,-5.2e-4 1.1356677,1.1356677 0 0 0 0,-5.2e-4 1.1356677,1.1356677 0 0 0 0,-5.1e-4 1.1356677,1.1356677 0 0 0 0,-5.2e-4 1.1356677,1.1356677 0 0 0 0,-5.2e-4 1.1356677,1.1356677 0 0 0 0,-5.1e-4 1.1356677,1.1356677 0 0 0 0,-5.2e-4 1.1356677,1.1356677 0 0 0 0,-5.2e-4 1.1356677,1.1356677 0 0 0 0,-5.1e-4 1.1356677,1.1356677 0 0 0 0,-5.2e-4 1.1356677,1.1356677 0 0 0 0,-5.2e-4 1.1356677,1.1356677 0 0 0 0,-5.1e-4 1.1356677,1.1356677 0 0 0 0,-5.2e-4 1.1356677,1.1356677 0 0 0 0,-5.2e-4 1.1356677,1.1356677 0 0 0 0,-5.1e-4 1.1356677,1.1356677 0 0 0 0,-5.2e-4 1.1356677,1.1356677 0 0 0 0,-5.2e-4 1.1356677,1.1356677 0 0 0 0,-5.1e-4 1.1356677,1.1356677 0 0 0 0,-5.2e-4 1.1356677,1.1356677 0 0 0 0,-5.2e-4 1.1356677,1.1356677 0 0 0 0,-5.1e-4 1.1356677,1.1356677 0 0 0 0,-5.2e-4 1.1356677,1.1356677 0 0 0 0,-5.2e-4 1.1356677,1.1356677 0 0 0 0,-5.1e-4 1.1356677,1.1356677 0 0 0 0,-5.2e-4 1.1356677,1.1356677 0 0 0 0,-5.2e-4 1.1356677,1.1356677 0 0 0 0,-5.1e-4 1.1356677,1.1356677 0 0 0 0,-5.2e-4 1.1356677,1.1356677 0 0 0 0,-5.2e-4 1.1356677,1.1356677 0 0 0 0,-5.1e-4 1.1356677,1.1356677 0 0 0 0,-5.2e-4 1.1356677,1.1356677 0 0 0 0,-5.2e-4 1.1356677,1.1356677 0 0 0 0,-5.1e-4 1.1356677,1.1356677 0 0 0 -1.135331,-1.1064 z m 14.238407,0.49041 a 0.89486969,0.89486969 0 0 0 -0.894519,0.89504 0.89486969,0.89486969 0 0 0 0.894519,0.89452 0.89486969,0.89486969 0 0 0 0.895036,-0.89452 0.89486969,0.89486969 0 0 0 -0.895036,-0.89504 z m 35.889799,4.84467 a 1.1356677,1.1356677 0 0 0 -1.13585,1.13585 1.1356677,1.1356677 0 0 0 1.13585,1.13533 1.1356677,1.1356677 0 0 0 1.13533,-1.13533 1.1356677,1.1356677 0 0 0 -1.13533,-1.13585 z m 16.36386,1.28261 a 1.1356677,1.1356677 0 0 0 -1.13585,1.13533 1.1356677,1.1356677 0 0 0 1.13585,1.13585 1.1356677,1.1356677 0 0 0 1.13533,-1.13585 1.1356677,1.1356677 0 0 0 -1.13533,-1.13533 z m -8.3566,5.0369 a 0.89486969,0.89486969 0 0 0 -0.89503,0.89452 0.89486969,0.89486969 0 0 0 0.89503,0.89503 0.89486969,0.89486969 0 0 0 0.89452,-0.89503 0.89486969,0.89486969 0 0 0 -0.89452,-0.89452 z m -54.284538,0.29145 a 0.89486969,0.89486969 0 0 0 -0.894519,0.89504 0.89486969,0.89486969 0 0 0 0.894519,0.89504 0.89486969,0.89486969 0 0 0 0.895035,-0.89504 0.89486969,0.89486969 0 0 0 -0.895035,-0.89504 z m -10.435022,0.56793 a 0.89486969,0.89486969 0 0 0 -0.894519,0.89503 0.89486969,0.89486969 0 0 0 0.894519,0.89452 0.89486969,0.89486969 0 0 0 0.06718,-0.002 0.89486969,0.89486969 0 0 0 0.827856,-0.89246 0.89486969,0.89486969 0 0 0 -5.16e-4,-0.0233 0.89486969,0.89486969 0 0 0 -0.894519,-0.87178 z m 78.73835,2.4014 a 0.98158991,0.98158991 0 0 0 -0.98134,0.98185 0.98158991,0.98158991 0 0 0 0.98134,0.98134 0.98158991,0.98158991 0 0 0 0.98185,-0.98134 0.98158991,0.98158991 0 0 0 -0.98185,-0.98185 z m -43.192716,1.00304 a 1.1356677,1.1356677 0 0 0 -1.135848,1.13585 1.1356677,1.1356677 0 0 0 1.135848,1.13533 1.1356677,1.1356677 0 0 0 1.135331,-1.13533 1.1356677,1.1356677 0 0 0 -1.135331,-1.13585 z m 14.801166,0.35967 a 0.98158991,0.98158991 0 0 0 -0.98134,0.98185 0.98158991,0.98158991 0 0 0 0.98134,0.98134 0.98158991,0.98158991 0 0 0 0.98185,-0.98134 0.98158991,0.98158991 0 0 0 -0.98185,-0.98185 z m -48.121613,4.95629 a 1.1356677,1.1356677 0 0 0 -1.135848,1.13584 1.1356677,1.1356677 0 0 0 1.135848,1.13533 1.1356677,1.1356677 0 0 0 1.135848,-1.13533 1.1356677,1.1356677 0 0 0 -1.135848,-1.13584 z m 19.397265,0.33796 a 1.1356677,1.1356677 0 0 0 -1.135331,1.13585 1.1356677,1.1356677 0 0 0 1.135331,1.13533 1.1356677,1.1356677 0 0 0 1.135848,-1.13533 1.1356677,1.1356677 0 0 0 -1.135848,-1.13585 z m 58.022298,5.29477 a 1.1356677,1.1356677 0 0 0 -1.13585,1.13584 1.1356677,1.1356677 0 0 0 1.13585,1.13534 1.1356677,1.1356677 0 0 0 1.13533,-1.13534 1.1356677,1.1356677 0 0 0 -1.13533,-1.13584 z m -37.976493,0.0114 a 1.1356677,1.1356677 0 0 0 -1.135848,1.13584 1.1356677,1.1356677 0 0 0 1.135848,1.13585 1.1356677,1.1356677 0 0 0 1.135848,-1.13585 1.1356677,1.1356677 0 0 0 -1.135848,-1.13584 z m 16.439823,2.19108 a 0.98158991,0.98158991 0 0 0 -0.98185,0.98185 0.98158991,0.98158991 0 0 0 0.98185,0.98133 0.98158991,0.98158991 0 0 0 0.98134,-0.98133 0.98158991,0.98158991 0 0 0 -0.98134,-0.98185 z m -43.119848,0.0315 a 1.1356677,1.1356677 0 0 0 -1.135848,1.13585 1.1356677,1.1356677 0 0 0 1.135848,1.13533 1.1356677,1.1356677 0 0 0 1.135848,-1.13533 1.1356677,1.1356677 0 0 0 -1.135848,-1.13585 z m 13.902511,3.14658 a 1.1356677,1.1356677 0 0 0 -1.135332,1.13584 1.1356677,1.1356677 0 0 0 1.135332,1.13534 1.1356677,1.1356677 0 0 0 1.135848,-1.13534 1.1356677,1.1356677 0 0 0 -1.135848,-1.13584 z m -34.820097,1.19217 a 1.1356677,1.1356677 0 0 0 -1.135848,1.13585 1.1356677,1.1356677 0 0 0 1.135848,1.13533 1.1356677,1.1356677 0 0 0 1.135331,-1.13533 1.1356677,1.1356677 0 0 0 -1.135331,-1.13585 z m 51.686254,3.43287 a 1.1356677,1.1356677 0 0 0 -1.135851,1.13533 1.1356677,1.1356677 0 0 0 1.135851,1.13585 1.1356677,1.1356677 0 0 0 1.13533,-1.13585 1.1356677,1.1356677 0 0 0 -1.13533,-1.13533 z m -28.246341,2.2133 a 1.1356677,1.1356677 0 0 0 -1.135331,1.13585 1.1356677,1.1356677 0 0 0 1.135331,1.13533 1.1356677,1.1356677 0 0 0 1.135848,-1.13533 1.1356677,1.1356677 0 0 0 -1.135848,-1.13585 z m 36.957431,0.6444 a 1.1356677,1.1356677 0 0 0 -1.13533,1.13534 1.1356677,1.1356677 0 0 0 1.13533,1.13584 1.1356677,1.1356677 0 0 0 1.13585,-1.13584 1.1356677,1.1356677 0 0 0 -1.13585,-1.13534 z m -3.27422,8.64392 a 1.1356677,1.1356677 0 0 0 -1.13533,1.13533 1.1356677,1.1356677 0 0 0 1.13533,1.13585 1.1356677,1.1356677 0 0 0 1.13585,-1.13585 1.1356677,1.1356677 0 0 0 -1.13585,-1.13533 z m -29.2163,1.01648 a 1.1356677,1.1356677 0 0 0 -1.135848,1.13584 1.1356677,1.1356677 0 0 0 1.135848,1.13534 1.1356677,1.1356677 0 0 0 1.135848,-1.13534 1.1356677,1.1356677 0 0 0 -1.135848,-1.13584 z" /><path
       id="path15480"
       style="fill:#ffffff;fill-opacity:1;stroke:none;stroke-width:0.431001;stroke-linecap:round;stroke-linejoin:round;stroke-miterlimit:2;stroke-dasharray:none;stroke-dashoffset:0.529134"
       d="m -34.39434,418.7485 a 1.1356677,1.1356677 0 0 0 -1.13585,1.13584 1.1356677,1.1356677 0 0 0 1.13585,1.13533 1.1356677,1.1356677 0 0 0 1.13533,-1.13533 1.1356677,1.1356677 0 0 0 -1.13533,-1.13584 z m -62.6215,0.77359 a 1.1356677,1.1356677 0 0 0 -1.13585,1.13533 1.1356677,1.1356677 0 0 0 1.13585,1.13585 1.1356677,1.1356677 0 0 0 1.13585,-1.13585 1.1356677,1.1356677 0 0 0 -1.13585,-1.13533 z m -12.10572,3.31505 a 1.1356677,1.1356677 0 0 0 -1.13533,1.13533 1.1356677,1.1356677 0 0 0 1.13533,1.13584 1.1356677,1.1356677 0 0 0 1.13584,-1.13584 1.1356677,1.1356677 0 0 0 -1.13584,-1.13533 z m 28.0479,3.76927 a 1.1356677,1.1356677 0 0 0 -1.13585,1.13534 1.1356677,1.1356677 0 0 0 1.13585,1.13584 1.1356677,1.1356677 0 0 0 1.13533,-1.13584 1.1356677,1.1356677 0 0 0 -1.13533,-1.13534 z m 59.17675,0.35967 a 0.98158991,0.98158991 0 0 0 -0.98134,0.98185 0.98158991,0.98158991 0 0 0 0.98134,0.98134 0.98158991,0.98158991 0 0 0 0.98185,-0.98134 0.98158991,0.98158991 0 0 0 -0.98185,-0.98185 z m -18.27331,3.64371 a 0.98158991,0.98158991 0 0 0 -0.98185,0.98185 0.98158991,0.98158991 0 0 0 0.98185,0.98133 0.98158991,0.98158991 0 0 0 0.98134,-0.98133 0.98158991,0.98158991 0 0 0 -0.98134,-0.98185 z m -29.39665,0.14779 a 1.1356677,1.1356677 0 0 0 -1.13533,1.13585 1.1356677,1.1356677 0 0 0 1.13533,1.13533 1.1356677,1.1356677 0 0 0 1.13585,-1.13533 1.1356677,1.1356677 0 0 0 -1.13585,-1.13585 z m -21.89272,1.14515 a 1.1356677,1.1356677 0 0 0 -1.13585,1.13585 1.1356677,1.1356677 0 0 0 1.13585,1.13533 1.1356677,1.1356677 0 0 0 1.13585,-1.13533 1.1356677,1.1356677 0 0 0 -1.13585,-1.13585 z m 40.68589,1.07797 a 1.1356677,1.1356677 0 0 0 -1.13534,1.13585 1.1356677,1.1356677 0 0 0 1.13534,1.13585 1.1356677,1.1356677 0 0 0 1.13584,-1.13585 1.1356677,1.1356677 0 0 0 -1.13584,-1.13585 z m -71.28868,0.3452 a 0.98158991,0.98158991 0 0 0 -0.98185,0.98185 0.98158991,0.98158991 0 0 0 0.98185,0.98134 0.98158991,0.98158991 0 0 0 0.98134,-0.98134 0.98158991,0.98158991 0 0 0 -0.98134,-0.98185 z m 19.04845,0.64079 a 1.1356677,1.1356677 0 0 0 -1.13584,1.13533 1.1356677,1.1356677 0 0 0 1.13584,1.13585 1.1356677,1.1356677 0 0 0 1.13585,-1.13585 1.1356677,1.1356677 0 0 0 -1.13585,-1.13533 z m 93.4485603,0.24546 a 1.1356677,1.1356677 0 0 0 -1.1353303,1.13585 1.1356677,1.1356677 0 0 0 1.1353303,1.13533 1.1356677,1.1356677 0 0 0 1.13585,-1.13533 1.1356677,1.1356677 0 0 0 -1.13585,-1.13585 z M -112.91513,434.5558 a 1.1356677,1.1356677 0 0 0 -1.13585,1.13585 1.1356677,1.1356677 0 0 0 1.13585,1.13585 1.1356677,1.1356677 0 0 0 1.13585,-1.13585 1.1356677,1.1356677 0 0 0 -1.13585,-1.13585 z m 91.76184,2.95279 a 1.1356677,1.1356677 0 0 0 -1.13533,1.13585 1.1356677,1.1356677 0 0 0 1.13533,1.13533 1.1356677,1.1356677 0 0 0 1.13585,-1.13533 1.1356677,1.1356677 0 0 0 -1.13585,-1.13585 z m -107.49628,1.49552 a 0.98158991,0.98158991 0 0 0 -0.98134,0.98185 0.98158991,0.98158991 0 0 0 0.98134,0.98133 0.98158991,0.98158991 0 0 0 0.98185,-0.98133 0.98158991,0.98158991 0 0 0 -0.98185,-0.98185 z m 39.02449,1.92081 a 1.1356677,1.1356677 0 0 0 -1.13585,1.13585 1.1356677,1.1356677 0 0 0 1.13585,1.13585 1.1356677,1.1356677 0 0 0 1.13585,-1.13585 1.1356677,1.1356677 0 0 0 -1.13585,-1.13585 z m 87.2525603,1.95492 a 1.1356677,1.1356677 0 0 0 -1.13585,1.13585 1.1356677,1.1356677 0 0 0 1.13585,1.13533 1.1356677,1.1356677 0 0 0 1.13584,-1.13533 1.1356677,1.1356677 0 0 0 -1.13584,-1.13585 z m -41.0889703,0.28835 a 1.1356677,1.1356677 0 0 0 -1.13585,1.13534 1.1356677,1.1356677 0 0 0 1.13585,1.13584 1.1356677,1.1356677 0 0 0 1.13533,-1.13584 1.1356677,1.1356677 0 0 0 -1.13533,-1.13534 z m 14.87506,1.52394 a 0.98158991,0.98158991 0 0 0 -0.98185,0.98185 0.98158991,0.98158991 0 0 0 0.98185,0.98134 0.98158991,0.98158991 0 0 0 0.98134,-0.98134 0.98158991,0.98158991 0 0 0 -0.98134,-0.98185 z m 13.24622,0.17674 a 1.1356677,1.1356677 0 0 0 -1.13585,1.13584 1.1356677,1.1356677 0 0 0 1.13585,1.13533 1.1356677,1.1356677 0 0 0 1.13533,-1.13533 1.1356677,1.1356677 0 0 0 -1.13533,-1.13584 z m -34.70176,2.69854 a 1.1356677,1.1356677 0 0 0 -1.13584,1.13585 1.1356677,1.1356677 0 0 0 1.13584,1.13533 1.1356677,1.1356677 0 0 0 1.13585,-1.13533 1.1356677,1.1356677 0 0 0 -1.13585,-1.13585 z m -69.56061,0.13901 v 5.1e-4 a 0.98158991,0.98158991 0 0 0 -0.98133,0.98186 0.98158991,0.98158991 0 0 0 0.98133,0.98133 0.98158991,0.98158991 0 0 0 0.0734,-0.003 0.98158991,0.98158991 0 0 0 0.90796,-0.97875 0.98158991,0.98158991 0 0 0 0,-5.2e-4 0.98158991,0.98158991 0 0 0 0,-5.1e-4 0.98158991,0.98158991 0 0 0 0,-5.2e-4 0.98158991,0.98158991 0 0 0 0,-5.2e-4 0.98158991,0.98158991 0 0 0 0,-5.1e-4 0.98158991,0.98158991 0 0 0 0,-5.2e-4 0.98158991,0.98158991 0 0 0 0,-5.2e-4 0.98158991,0.98158991 0 0 0 0,-5.1e-4 0.98158991,0.98158991 0 0 0 0,-5.2e-4 0.98158991,0.98158991 0 0 0 0,-5.2e-4 0.98158991,0.98158991 0 0 0 0,-5.1e-4 0.98158991,0.98158991 0 0 0 0,-5.2e-4 0.98158991,0.98158991 0 0 0 0,-5.2e-4 0.98158991,0.98158991 0 0 0 0,-5.1e-4 0.98158991,0.98158991 0 0 0 0,-5.2e-4 0.98158991,0.98158991 0 0 0 0,-5.2e-4 0.98158991,0.98158991 0 0 0 0,-5.1e-4 0.98158991,0.98158991 0 0 0 0,-5.2e-4 0.98158991,0.98158991 0 0 0 0,-5.2e-4 0.98158991,0.98158991 0 0 0 0,-5.1e-4 0.98158991,0.98158991 0 0 0 0,-5.2e-4 0.98158991,0.98158991 0 0 0 0,-5.2e-4 0.98158991,0.98158991 0 0 0 0,-5.2e-4 0.98158991,0.98158991 0 0 0 0,-5.1e-4 0.98158991,0.98158991 0 0 0 0,-5.2e-4 0.98158991,0.98158991 0 0 0 0,-5.2e-4 0.98158991,0.98158991 0 0 0 0,-5.1e-4 0.98158991,0.98158991 0 0 0 0,-5.2e-4 0.98158991,0.98158991 0 0 0 0,-5.2e-4 0.98158991,0.98158991 0 0 0 0,-5.1e-4 0.98158991,0.98158991 0 0 0 0,-5.2e-4 0.98158991,0.98158991 0 0 0 0,-5.2e-4 0.98158991,0.98158991 0 0 0 0,-5.1e-4 0.98158991,0.98158991 0 0 0 0,-5.2e-4 0.98158991,0.98158991 0 0 0 0,-5.2e-4 0.98158991,0.98158991 0 0 0 0,-5.1e-4 0.98158991,0.98158991 0 0 0 0,-5.2e-4 0.98158991,0.98158991 0 0 0 0,-5.2e-4 0.98158991,0.98158991 0 0 0 0,-5.1e-4 0.98158991,0.98158991 0 0 0 0,-5.2e-4 0.98158991,0.98158991 0 0 0 0,-5.2e-4 0.98158991,0.98158991 0 0 0 0,-5.1e-4 0.98158991,0.98158991 0 0 0 0,-5.2e-4 0.98158991,0.98158991 0 0 0 0,-5.2e-4 0.98158991,0.98158991 0 0 0 0,-5.1e-4 0.98158991,0.98158991 0 0 0 0,-5.2e-4 0.98158991,0.98158991 0 0 0 0,-5.2e-4 0.98158991,0.98158991 0 0 0 0,-5.1e-4 0.98158991,0.98158991 0 0 0 0,-5.2e-4 0.98158991,0.98158991 0 0 0 -0.98134,-0.95653 z m 17.93276,0.75344 a 1.1356677,1.1356677 0 0 0 -1.13585,1.13533 1.1356677,1.1356677 0 0 0 1.13585,1.13585 1.1356677,1.1356677 0 0 0 1.13533,-1.13585 1.1356677,1.1356677 0 0 0 -1.13533,-1.13533 z m 58.20833,5.29167 a 1.1356677,1.1356677 0 0 0 -1.13585,1.13533 1.1356677,1.1356677 0 0 0 1.13585,1.13585 1.1356677,1.1356677 0 0 0 1.13533,-1.13585 1.1356677,1.1356677 0 0 0 -1.13533,-1.13533 z m 28.07271,1.90531 a 1.1356677,1.1356677 0 0 0 -1.13533,1.13533 1.1356677,1.1356677 0 0 0 1.13533,1.13585 1.1356677,1.1356677 0 0 0 1.13584,-1.13585 1.1356677,1.1356677 0 0 0 -1.13584,-1.13533 z m -11.12387,3.6375 a 1.1356677,1.1356677 0 0 0 -1.13533,1.13585 1.1356677,1.1356677 0 0 0 1.13533,1.13585 1.1356677,1.1356677 0 0 0 1.13585,-1.13585 1.1356677,1.1356677 0 0 0 -1.13585,-1.13585 z m -65.39084,0.0971 a 0.89486969,0.89486969 0 0 0 -0.89452,0.89452 0.89486969,0.89486969 0 0 0 0.89452,0.89504 0.89486969,0.89486969 0 0 0 0.89503,-0.89504 0.89486969,0.89486969 0 0 0 -0.89503,-0.89452 z m 29.04525,0.015 a 1.1356677,1.1356677 0 0 0 -1.13585,1.13533 1.1356677,1.1356677 0 0 0 1.13585,1.13585 1.1356677,1.1356677 0 0 0 1.13533,-1.13585 1.1356677,1.1356677 0 0 0 -1.13533,-1.13533 z m -50.10392,1.75131 a 1.1356677,1.1356677 0 0 0 -1.13584,1.13585 1.1356677,1.1356677 0 0 0 1.13584,1.13533 1.1356677,1.1356677 0 0 0 1.13585,-1.13533 1.1356677,1.1356677 0 0 0 -1.13585,-1.13585 z m 73.3516,2.29599 a 0.89486969,0.89486969 0 0 0 -0.89452,0.89452 0.89486969,0.89486969 0 0 0 0.89452,0.89503 0.89486969,0.89486969 0 0 0 0.89503,-0.89503 0.89486969,0.89486969 0 0 0 -0.89503,-0.89452 z m -59.2708,0.83767 a 1.1356677,1.1356677 0 0 0 -1.13585,1.13585 1.1356677,1.1356677 0 0 0 1.13585,1.13533 1.1356677,1.1356677 0 0 0 0.08475,-0.003 1.1356677,1.1356677 0 0 0 1.05058,-1.13223 1.1356677,1.1356677 0 0 0 0,-5.2e-4 1.1356677,1.1356677 0 0 0 0,-5.1e-4 1.1356677,1.1356677 0 0 0 0,-5.2e-4 1.1356677,1.1356677 0 0 0 0,-5.2e-4 1.1356677,1.1356677 0 0 0 0,-5.1e-4 1.1356677,1.1356677 0 0 0 0,-5.2e-4 1.1356677,1.1356677 0 0 0 0,-5.2e-4 1.1356677,1.1356677 0 0 0 0,-5.1e-4 1.1356677,1.1356677 0 0 0 0,-5.2e-4 1.1356677,1.1356677 0 0 0 0,-5.2e-4 1.1356677,1.1356677 0 0 0 0,-5.1e-4 1.1356677,1.1356677 0 0 0 0,-5.2e-4 1.1356677,1.1356677 0 0 0 0,-5.2e-4 1.1356677,1.1356677 0 0 0 0,-5.1e-4 1.1356677,1.1356677 0 0 0 0,-5.2e-4 1.1356677,1.1356677 0 0 0 0,-5.2e-4 1.1356677,1.1356677 0 0 0 0,-5.1e-4 1.1356677,1.1356677 0 0 0 0,-5.2e-4 1.1356677,1.1356677 0 0 0 0,-5.2e-4 1.1356677,1.1356677 0 0 0 0,-5.1e-4 1.1356677,1.1356677 0 0 0 0,-5.2e-4 1.1356677,1.1356677 0 0 0 0,-5.2e-4 1.1356677,1.1356677 0 0 0 0,-5.2e-4 1.1356677,1.1356677 0 0 0 0,-5.1e-4 1.1356677,1.1356677 0 0 0 0,-5.2e-4 1.1356677,1.1356677 0 0 0 0,-5.2e-4 1.1356677,1.1356677 0 0 0 0,-5.1e-4 1.1356677,1.1356677 0 0 0 0,-5.2e-4 1.1356677,1.1356677 0 0 0 0,-5.2e-4 1.1356677,1.1356677 0 0 0 0,-5.1e-4 1.1356677,1.1356677 0 0 0 0,-5.2e-4 1.1356677,1.1356677 0 0 0 0,-5.2e-4 1.1356677,1.1356677 0 0 0 0,-5.1e-4 1.1356677,1.1356677 0 0 0 0,-5.2e-4 1.1356677,1.1356677 0 0 0 0,-5.2e-4 1.1356677,1.1356677 0 0 0 0,-5.1e-4 1.1356677,1.1356677 0 0 0 0,-5.2e-4 1.1356677,1.1356677 0 0 0 0,-5.2e-4 1.1356677,1.1356677 0 0 0 0,-5.1e-4 1.1356677,1.1356677 0 0 0 0,-5.2e-4 1.1356677,1.1356677 0 0 0 0,-5.2e-4 1.1356677,1.1356677 0 0 0 0,-5.1e-4 1.1356677,1.1356677 0 0 0 0,-5.2e-4 1.1356677,1.1356677 0 0 0 0,-5.2e-4 1.1356677,1.1356677 0 0 0 0,-5.1e-4 1.1356677,1.1356677 0 0 0 0,-5.2e-4 1.1356677,1.1356677 0 0 0 0,-5.2e-4 1.1356677,1.1356677 0 0 0 0,-5.1e-4 1.1356677,1.1356677 0 0 0 0,-5.2e-4 1.1356677,1.1356677 0 0 0 0,-5.2e-4 1.1356677,1.1356677 0 0 0 0,-5.1e-4 1.1356677,1.1356677 0 0 0 0,-5.2e-4 1.1356677,1.1356677 0 0 0 0,-5.2e-4 1.1356677,1.1356677 0 0 0 0,-5.1e-4 1.1356677,1.1356677 0 0 0 0,-5.2e-4 1.1356677,1.1356677 0 0 0 0,-5.2e-4 1.1356677,1.1356677 0 0 0 0,-5.2e-4 1.1356677,1.1356677 0 0 0 -1.13533,-1.10639 z m 31.49162,2.52026 a 0.89486969,0.89486969 0 0 0 -0.89452,0.89504 0.89486969,0.89486969 0 0 0 0.89452,0.89452 0.89486969,0.89486969 0 0 0 0.89503,-0.89452 0.89486969,0.89486969 0 0 0 -0.89503,-0.89504 z m 18.63658,2.81482 a 1.1356677,1.1356677 0 0 0 -1.13584,1.13585 1.1356677,1.1356677 0 0 0 1.13584,1.13533 1.1356677,1.1356677 0 0 0 1.13534,-1.13533 1.1356677,1.1356677 0 0 0 -1.13534,-1.13585 z m 16.36386,1.28261 a 1.1356677,1.1356677 0 0 0 -1.13584,1.13533 1.1356677,1.1356677 0 0 0 1.13584,1.13585 1.1356677,1.1356677 0 0 0 1.13533,-1.13585 1.1356677,1.1356677 0 0 0 -1.13533,-1.13533 z m -8.35659,5.0369 a 0.89486969,0.89486969 0 0 0 -0.89504,0.89452 0.89486969,0.89486969 0 0 0 0.89504,0.89503 0.89486969,0.89486969 0 0 0 0.89452,-0.89503 0.89486969,0.89486969 0 0 0 -0.89452,-0.89452 z m -54.28454,0.29145 a 0.89486969,0.89486969 0 0 0 -0.89452,0.89504 0.89486969,0.89486969 0 0 0 0.89452,0.89503 0.89486969,0.89486969 0 0 0 0.89503,-0.89503 0.89486969,0.89486969 0 0 0 -0.89503,-0.89504 z m -10.43554,0.56793 a 0.89486969,0.89486969 0 0 0 -0.89452,0.89503 0.89486969,0.89486969 0 0 0 0.89452,0.89452 0.89486969,0.89486969 0 0 0 0.0672,-0.002 0.89486969,0.89486969 0 0 0 0.82785,-0.89245 0.89486969,0.89486969 0 0 0 -5.1e-4,-0.0233 0.89486969,0.89486969 0 0 0 -0.89452,-0.87178 z m 44.86651,0.92242 a 0.98158991,0.98158991 0 0 0 -0.98134,0.98185 0.98158991,0.98158991 0 0 0 0.98134,0.98134 0.98158991,0.98158991 0 0 0 0.98185,-0.98134 0.98158991,0.98158991 0 0 0 -0.98185,-0.98185 z m 33.87235,1.47898 a 0.98158991,0.98158991 0 0 0 -0.98134,0.98185 0.98158991,0.98158991 0 0 0 0.98134,0.98134 0.98158991,0.98158991 0 0 0 0.98185,-0.98134 0.98158991,0.98158991 0 0 0 -0.98185,-0.98185 z m -43.19271,1.00304 a 1.1356677,1.1356677 0 0 0 -1.13585,1.13585 1.1356677,1.1356677 0 0 0 1.13585,1.13533 1.1356677,1.1356677 0 0 0 1.13533,-1.13533 1.1356677,1.1356677 0 0 0 -1.13533,-1.13585 z m -33.32045,5.31596 a 1.1356677,1.1356677 0 0 0 -1.13585,1.13584 1.1356677,1.1356677 0 0 0 1.13585,1.13533 1.1356677,1.1356677 0 0 0 1.13585,-1.13533 1.1356677,1.1356677 0 0 0 -1.13585,-1.13584 z m 19.39727,0.33796 a 1.1356677,1.1356677 0 0 0 -1.13533,1.13585 1.1356677,1.1356677 0 0 0 1.13533,1.13533 1.1356677,1.1356677 0 0 0 1.13584,-1.13533 1.1356677,1.1356677 0 0 0 -1.13584,-1.13585 z m 38.1093,4.65553 a 0.98158991,0.98158991 0 0 0 -0.98185,0.98185 0.98158991,0.98158991 0 0 0 0.98185,0.98134 0.98158991,0.98158991 0 0 0 0.98133,-0.98134 0.98158991,0.98158991 0 0 0 -0.98133,-0.98185 z m 19.913,0.63924 a 1.1356677,1.1356677 0 0 0 -1.13585,1.13584 1.1356677,1.1356677 0 0 0 1.13585,1.13534 1.1356677,1.1356677 0 0 0 1.13533,-1.13534 1.1356677,1.1356677 0 0 0 -1.13533,-1.13584 z m -37.9765,0.0114 a 1.1356677,1.1356677 0 0 0 -1.13585,1.13584 1.1356677,1.1356677 0 0 0 1.13585,1.13585 1.1356677,1.1356677 0 0 0 1.13585,-1.13585 1.1356677,1.1356677 0 0 0 -1.13585,-1.13584 z m -26.68054,2.2226 a 1.1356677,1.1356677 0 0 0 -1.13585,1.13585 1.1356677,1.1356677 0 0 0 1.13585,1.13533 1.1356677,1.1356677 0 0 0 1.13585,-1.13533 1.1356677,1.1356677 0 0 0 -1.13585,-1.13585 z m 34.60874,0.68316 a 1.1356677,1.1356677 0 0 0 -1.13533,1.13533 1.1356677,1.1356677 0 0 0 1.13533,1.13585 1.1356677,1.1356677 0 0 0 1.13585,-1.13585 1.1356677,1.1356677 0 0 0 -1.13585,-1.13533 z m -20.70571,2.46342 a 1.1356677,1.1356677 0 0 0 -1.13533,1.13584 1.1356677,1.1356677 0 0 0 1.13533,1.13534 1.1356677,1.1356677 0 0 0 1.13585,-1.13534 1.1356677,1.1356677 0 0 0 -1.13585,-1.13584 z m -34.8201,1.19217 a 1.1356677,1.1356677 0 0 0 -1.13585,1.13585 1.1356677,1.1356677 0 0 0 1.13585,1.13533 1.1356677,1.1356677 0 0 0 1.13533,-1.13533 1.1356677,1.1356677 0 0 0 -1.13533,-1.13585 z m 51.68625,3.43287 a 1.1356677,1.1356677 0 0 0 -1.13585,1.13533 1.1356677,1.1356677 0 0 0 1.13585,1.13585 1.1356677,1.1356677 0 0 0 1.13533,-1.13585 1.1356677,1.1356677 0 0 0 -1.13533,-1.13533 z m -28.24634,2.2133 a 1.1356677,1.1356677 0 0 0 -1.13533,1.13585 1.1356677,1.1356677 0 0 0 1.13533,1.13533 1.1356677,1.1356677 0 0 0 1.13585,-1.13533 1.1356677,1.1356677 0 0 0 -1.13585,-1.13585 z m 33.68322,9.28832 a 1.1356677,1.1356677 0 0 0 -1.13533,1.13533 1.1356677,1.1356677 0 0 0 1.13533,1.13585 1.1356677,1.1356677 0 0 0 1.13585,-1.13585 1.1356677,1.1356677 0 0 0 -1.13585,-1.13533 z m -29.21631,1.01648 a 1.1356677,1.1356677 0 0 0 -1.13584,1.13584 1.1356677,1.1356677 0 0 0 1.13584,1.13534 1.1356677,1.1356677 0 0 0 1.13585,-1.13534 1.1356677,1.1356677 0 0 0 -1.13585,-1.13584 z" /><text
       xml:space="preserve"
       style="font-size:19.05px;font-family:Borensa;-inkscape-font-specification:Borensa;text-align:end;text-anchor:end;fill:#ff0000;fill-opacity:1;stroke:none;stroke-width:0.431001;stroke-linecap:round;stroke-linejoin:round;stroke-miterlimit:2;stroke-dasharray:none;stroke-dashoffset:0.529134"
       x="-36.424618"
       y="-169.67845"
       id="text15761"><tspan
         sodipodi:role="line"
         id="tspan15759"
         style="font-style:normal;font-variant:normal;font-weight:normal;font-stretch:normal;font-family:Arial;-inkscape-font-specification:Arial;fill:#000000;stroke:#000000;stroke-width:0.431"
         x="-36.424614"
         y="-169.67845">Girls Costume:</tspan></text><rect
       style="fill:none;fill-opacity:1;stroke:#000000;stroke-width:2;stroke-linecap:round;stroke-linejoin:round;stroke-miterlimit:2;stroke-dasharray:none;stroke-dashoffset:0.529134"
       id="rect15969"
       width="554.25537"
       height="390.55875"
       x="-172.1277"
       y="196.85959" /><text
       xml:space="preserve"
       style="font-size:19.05px;font-family:Borensa;-inkscape-font-specification:Borensa;text-align:end;text-anchor:end;fill:#ff0000;fill-opacity:1;stroke:none;stroke-width:0.431001;stroke-linecap:round;stroke-linejoin:round;stroke-miterlimit:2;stroke-dasharray:none;stroke-dashoffset:0.529134"
       x="-33.606186"
       y="220.88029"
       id="text15973"><tspan
         sodipodi:role="line"
         id="tspan15971"
         style="font-style:normal;font-variant:normal;font-weight:normal;font-stretch:normal;font-family:Arial;-inkscape-font-specification:Arial;fill:#000000;stroke:#000000;stroke-width:0.431"
         x="-33.60619"
         y="220.88029">Boys Costume:</tspan></text><text
       xml:space="preserve"
       style="font-size:19.05px;font-family:Borensa;-inkscape-font-specification:Borensa;text-align:start;text-anchor:start;fill:#ff0000;fill-opacity:1;stroke:none;stroke-width:0.431001;stroke-linecap:round;stroke-linejoin:round;stroke-miterlimit:2;stroke-dasharray:none;stroke-dashoffset:0.529134"
       x="-162.3239"
       y="-212.01183"
       id="text16262"><tspan
         sodipodi:role="line"
         id="tspan16260"
         style="font-style:normal;font-variant:normal;font-weight:normal;font-stretch:normal;font-family:Arial;-inkscape-font-specification:Arial;text-align:start;text-anchor:start;fill:#000000;stroke:#000000;stroke-width:0.431"
         x="-162.3239"
         y="-212.01183">Colorway:</tspan></text><g
       id="g18056"
       style="fill:#d4aa00"><path
         style="color:#000000;fill:#d4aa00;stroke-width:0.91862;stroke-linecap:round;stroke-miterlimit:2;stroke-dashoffset:0.529134"
         d="m -131.55831,-152.91259 v 5.13316 109.694377 H 350.71734 V -152.91259 Z m 10.2663,10.26631 h 461.74305 v 94.294929 h -461.74305 z"
         id="path5107" /><path
         id="path5288"
         style="fill:#d4aa00;fill-opacity:1;stroke:none;stroke-width:5.51173;stroke-linecap:round;stroke-linejoin:miter;stroke-miterlimit:2;stroke-dasharray:none;stroke-dashoffset:0.529134;stroke-opacity:1"
         d="m -131.72502,35.662064 -6.11332,3.569823 23.17962,40.148133 6.13089,-3.539912 z" /><path
         id="path6284"
         style="fill:#d4aa00;fill-opacity:1;stroke:none;stroke-width:5.51173;stroke-linecap:round;stroke-linejoin:miter;stroke-miterlimit:2;stroke-dasharray:none;stroke-dashoffset:0.529134;stroke-opacity:1"
         d="M 46.418547,35.662064 52.531864,39.231887 29.352246,79.38002 23.221355,75.840108 Z" /><path
         id="path7157"
         style="fill:#d4aa00;fill-opacity:1;stroke:none;stroke-width:5.51173;stroke-linecap:round;stroke-linejoin:miter;stroke-miterlimit:2;stroke-dasharray:none;stroke-dashoffset:0.529134;stroke-opacity:1"
         d="m -94.79135,127.91792 -0.328499,6.42188 h 42.744332 19.444133 42.7443283 l -0.3285076,-6.42188 z" /><path
         style="color:#000000;fill:#d4aa00;stroke-width:0.91862;stroke-linecap:round;stroke-linejoin:round;stroke-miterlimit:2;stroke-dashoffset:0.529134"
         d="m 178.91106,89.413893 a 1.7119281,1.7119281 0 0 0 -1.79957,1.058572 c -2.70066,6.687701 -4.53153,13.939855 -7.10675,20.324475 -2.5752,6.38463 -5.83514,11.82019 -11.26027,15.21824 a 1.7119281,1.7119281 0 0 0 -0.0843,2.84557 c 5.42184,3.86251 9.70524,8.44434 11.86492,15.01549 a 1.7119281,1.7119281 0 0 0 3.07164,0.38575 c 3.71467,-5.83476 8.99647,-9.21962 15.20388,-11.62449 a 1.7119281,1.7119281 0 0 0 0.62078,-2.77739 c -4.41862,-4.63191 -6.2353,-10.70284 -7.15519,-17.52555 -0.91988,-6.82272 -0.90481,-14.303884 -1.87133,-21.451232 a 1.7119281,1.7119281 0 0 0 -1.48378,-1.469435 z m -1.22722,9.789053 c 0.30877,4.514354 0.58303,9.090734 1.18954,13.589124 0.85975,6.37673 2.66164,12.49982 6.65102,17.57579 -4.93118,2.16641 -9.41148,5.21164 -12.95936,9.67781 -2.33551,-5.20366 -5.92384,-9.26068 -10.16762,-12.57721 5.11804,-3.93426 8.37455,-9.42368 10.78123,-15.39047 1.69784,-4.20939 3.0919,-8.57671 4.50519,-12.875044 z"
         id="path17597" /><path
         id="path17603"
         style="color:#000000;fill:#d4aa00;stroke-width:0.91862;stroke-linecap:round;stroke-linejoin:round;stroke-miterlimit:2;stroke-dashoffset:0.529134"
         d="m 133.01085,67.062493 a 1.7119281,1.7119281 0 0 0 -0.10254,9.19e-4 l -4.82543,12.175366 c 0.61887,-0.962797 1.2341,-1.926145 1.84899,-2.884808 -0.82937,4.447316 -1.70732,8.946562 -2.24443,13.452808 -0.7615,6.388798 -0.54834,12.767632 2.04505,18.679372 -5.31629,0.86506 -10.41543,2.69451 -14.96713,6.13231 -0.0689,-0.40331 -0.14613,-0.80202 -0.23023,-1.19722 l -0.81034,2.0441 -1.3738,3.46633 a 1.7119281,1.7119281 0 0 0 2.35883,0.0271 c 5.05527,-4.72095 11.01638,-6.67802 17.62789,-7.45485 a 1.7119281,1.7119281 0 0 0 1.29549,-2.53352 c -3.12048,-5.5894 -3.3626,-11.922124 -2.54778,-18.758179 0.81481,-6.836051 2.70003,-14.075559 3.55083,-21.237583 a 1.7119281,1.7119281 0 0 0 -1.6254,-1.912135 z" /><path
         id="path17373"
         style="color:#000000;fill:#d4aa00;fill-opacity:1;stroke-width:0.91862;stroke-linecap:round;stroke-miterlimit:2;stroke-dashoffset:0.529134"
         d="m 305.40319,135.92278 2.06879,5.21945 c -32.01187,22.63256 -73.46744,34.12179 -101.96205,35.5743 v -5.5299 c 27.42473,-1.50687 68.64608,-12.96707 99.50732,-35.05782 a 2.7558654,2.7558654 0 0 1 0.38594,-0.20603 z m -199.78652,0 -2.06878,5.21945 c 32.01186,22.63256 73.46743,34.12179 101.96204,35.5743 v -5.5299 c -27.42473,-1.50687 -68.64608,-12.96707 -99.50732,-35.05782 a 2.7558654,2.7558654 0 0 0 -0.38594,-0.20603 z" /><path
         id="path17379"
         style="color:#000000;fill:#d4aa00;fill-opacity:1;stroke-width:0.91862;stroke-linecap:round;stroke-miterlimit:2;stroke-dashoffset:0.529134"
         d="m 300.64043,123.9055 1.70705,4.30752 c -14.85879,9.78833 -31.20943,17.24774 -48.07722,22.78466 -12.44221,4.04729 -25.27709,7.09205 -38.24407,8.74416 -3.49405,0.43245 -7.00055,0.76835 -10.51626,0.96176 v -4.56102 c 13.12015,-0.80966 26.08109,-3.38767 38.72353,-6.92364 17.6409,-5.01261 34.76104,-12.05423 50.47546,-21.54472 2.00457,-1.21258 3.98229,-2.46916 5.93151,-3.76872 z m -190.261,0 -1.70705,4.30752 c 14.85879,9.78833 31.20944,17.24774 48.07722,22.78466 12.44221,4.04729 25.27709,7.09205 38.24408,8.74416 3.49404,0.43245 7.00054,0.76835 10.51625,0.96176 v -4.56102 c -13.12015,-0.80966 -26.08109,-3.38767 -38.72353,-6.92364 -17.6409,-5.01261 -34.76104,-12.05423 -50.47546,-21.54472 -2.00457,-1.21258 -3.98229,-2.46916 -5.93151,-3.76872 z" /><path
         style="color:#000000;fill:#d4aa00;stroke-width:0.91862;stroke-linecap:round;stroke-linejoin:round;stroke-miterlimit:2;stroke-dashoffset:0.529134"
         d="m 232.1085,89.413893 a 1.7119281,1.7119281 0 0 0 -1.48379,1.469435 c -0.96652,7.147348 -0.95144,14.628512 -1.87133,21.451232 -0.91988,6.82271 -2.73657,12.89364 -7.15518,17.52555 a 1.7119281,1.7119281 0 0 0 0.62078,2.77739 c 6.20741,2.40487 11.49099,5.78973 15.20567,11.62449 a 1.7119281,1.7119281 0 0 0 3.06985,-0.38575 c 2.15968,-6.57115 6.44307,-11.15298 11.86491,-15.01549 a 1.7119281,1.7119281 0 0 0 -0.0843,-2.84557 c -5.42513,-3.39805 -8.68328,-8.83361 -11.25848,-15.21824 -2.57522,-6.38462 -4.40788,-13.636774 -7.10854,-20.324475 a 1.7119281,1.7119281 0 0 0 -1.79957,-1.058572 z m 1.22722,9.789053 c 1.41329,4.298334 2.80735,8.665654 4.50519,12.875044 2.40686,5.96723 5.66432,11.45616 10.78302,15.39047 -4.24404,3.31663 -7.83378,7.37328 -10.16941,12.57721 -3.54752,-4.46571 -8.02697,-7.51146 -12.95757,-9.67781 3.98911,-5.07587 5.7895,-11.19926 6.64923,-17.57579 0.6065,-4.49839 0.88077,-9.07477 1.18954,-13.589124 z"
         id="path17591" /><path
         id="path17585"
         style="color:#000000;fill:#d4aa00;stroke-width:0.91862;stroke-linecap:round;stroke-linejoin:round;stroke-miterlimit:2;stroke-dashoffset:0.529134"
         d="m 277.88717,67.072938 a 1.7119281,1.7119281 0 0 0 -0.43435,0.109178 1.7119281,1.7119281 0 0 0 -1.06953,1.792513 c 0.85079,7.162023 2.73602,14.401532 3.55083,21.237582 0.81481,6.836055 0.57271,13.168779 -2.54777,18.758179 a 1.7119281,1.7119281 0 0 0 1.29549,2.53352 c 6.6115,0.77683 12.57262,2.7339 17.62788,7.45486 a 1.7119281,1.7119281 0 0 0 2.35931,-0.0275 l -1.37381,-3.46587 -0.81033,-2.04457 c -0.0841,0.39537 -0.16177,0.79419 -0.23071,1.19769 -4.55169,-3.4378 -9.65084,-5.26725 -14.96713,-6.13231 2.5934,-5.91174 2.80845,-12.290574 2.04695,-18.679372 -0.53711,-4.506246 -1.41696,-9.005492 -2.24633,-13.452808 0.61533,0.959324 1.23111,1.923251 1.85042,2.886709 l -4.82116,-12.164455 a 1.7119281,1.7119281 0 0 0 -0.22976,-0.0033 z" /><path
         id="path17425"
         style="color:#000000;fill:#d4aa00;stroke-width:0.91862;stroke-linecap:round;stroke-linejoin:round;stroke-miterlimit:2;stroke-dashoffset:0.529134"
         d="m 257.92846,16.139385 8.61409,98.222765 -41.23381,-92.962029 a 1.4148121,1.4148121 0 0 0 -2.6916,0.355084 L 205.51001,130.75722 188.4024,21.755205 a 1.4148121,1.4148121 0 0 0 -2.6916,-0.355084 l -41.23191,92.958219 8.6122,-98.217531 -3.64768,9.202729 -8.5258,97.233942 a 1.4148121,1.4148121 0 0 0 2.70206,0.69641 l 42.73198,-96.336748 17.76033,113.162368 a 1.4148121,1.4148121 0 0 0 2.79558,0 l 17.76032,-113.16427 42.732,96.33865 a 1.4148121,1.4148121 0 0 0 2.70395,-0.69641 l -8.5277,-97.234888 z" /><path
         id="path17438"
         style="fill:#d4aa00;fill-opacity:1;stroke:none;stroke-width:2.82934;stroke-linecap:round;stroke-linejoin:round;stroke-miterlimit:2;stroke-dasharray:none;stroke-dashoffset:0.529134;stroke-opacity:1"
         d="m 166.74375,-18.306545 -3.14448,7.934311 h 83.82148 l -3.14448,-7.934311 h -38.76626 z" /><path
         id="path19219"
         style="fill:#d4aa00;fill-opacity:1;stroke:none;stroke-width:2.82934;stroke-linecap:round;stroke-linejoin:round;stroke-miterlimit:2;stroke-dasharray:none;stroke-dashoffset:0.529134;stroke-opacity:1"
         d="m 62.646604,242.29319 -3.806227,3.36427 c 8.814118,6.85892 25.89733,13.09915 34.528998,13.09915 8.631675,0 25.714875,-6.24023 34.528995,-13.09915 l -3.80622,-3.36427 c -7.69924,6.13014 -23.02272,11.7581 -30.722775,11.7581 -7.700058,0 -23.023544,-5.62796 -30.722771,-11.7581 z" /><path
         id="path19516"
         style="fill:#d4aa00;fill-opacity:1;stroke:none;stroke-width:2.82934;stroke-linecap:round;stroke-linejoin:round;stroke-miterlimit:2;stroke-dasharray:none;stroke-dashoffset:0.529134;stroke-opacity:1"
         d="m 9.4552403,289.30755 -5.59873,4.94837 26.7399457,26.74043 5.27403,-5.27403 z" /><path
         id="path19523"
         style="fill:#d4aa00;fill-opacity:1;stroke:none;stroke-width:2.82934;stroke-linecap:round;stroke-linejoin:round;stroke-miterlimit:2;stroke-dasharray:none;stroke-dashoffset:0.529134;stroke-opacity:1"
         d="m 20.65365,279.40937 -5.59873,4.94885 26.089596,26.09007 5.274031,-5.27403 z" /><path
         id="path20728"
         style="fill:#d4aa00;fill-opacity:1;stroke:none;stroke-width:2.82935;stroke-linecap:round;stroke-linejoin:round;stroke-miterlimit:2;stroke-dasharray:none;stroke-dashoffset:0.529134;stroke-opacity:1"
         d="m 35.03651,380.13478 -1.215732,5.15108 c 15.198658,5.23454 39.370293,9.10304 59.548597,9.10304 20.178295,0 44.349935,-3.8685 59.548595,-9.10304 l -1.21574,-5.15108 c -15.88318,4.83444 -38.88021,8.28607 -58.332855,8.28607 -19.452653,0 -42.449685,-3.45163 -58.332865,-8.28607 z" /><path
         id="path22740"
         style="fill:#d4aa00;fill-opacity:1;stroke:none;stroke-width:2.82934;stroke-linecap:round;stroke-linejoin:round;stroke-miterlimit:2;stroke-dasharray:none;stroke-dashoffset:0.529134;stroke-opacity:1"
         d="m 177.28333,289.30755 5.59873,4.94837 -26.73995,26.74043 -5.27403,-5.27403 z" /><path
         id="path22744"
         style="fill:#d4aa00;fill-opacity:1;stroke:none;stroke-width:2.82934;stroke-linecap:round;stroke-linejoin:round;stroke-miterlimit:2;stroke-dasharray:none;stroke-dashoffset:0.529134;stroke-opacity:1"
         d="m 166.08491,279.40937 5.59874,4.94885 -26.0896,26.09007 -5.27403,-5.27403 z" /><path
         id="path22752"
         style="color:#000000;fill:#d4aa00;fill-opacity:1;stroke-width:0.91862;stroke-linecap:square"
         d="m 122.98835,318.24398 18.51418,28.06249 1.26272,1.91641 4.8e-4,-4.8e-4 1.98476,3.00825 -4.8e-4,4.6e-4 0.20128,0.30524 1.53285,6.49404 -0.66413,-1.00733 -1.52049,-2.30519 -1.2651,-1.91831 -19.12608,-28.99387 -12.17346,46.5159 -18.365597,-38.79949 v -5.3647 l 17.741347,37.47552 z m -59.238135,0 -18.514171,28.06249 -1.262729,1.91641 -4.75e-4,-4.8e-4 -1.984764,3.00825 4.75e-4,4.6e-4 -0.201277,0.30524 -1.532839,6.49404 0.664119,-1.00733 1.520497,-2.30519 1.265102,-1.91831 19.126074,-28.99387 12.173468,46.5159 18.365588,-38.79949 v -5.3647 l -17.741345,37.47552 z" /><path
         id="path22815"
         style="fill:#d4aa00;fill-opacity:1;stroke:none;stroke-width:2.82934;stroke-linecap:round;stroke-linejoin:round;stroke-miterlimit:2;stroke-dasharray:none;stroke-dashoffset:0.529134;stroke-opacity:1"
         d="m -98.03771,409.00017 -3.80622,3.36427 c 8.81411,6.85893 25.89733,13.09916 34.52899,13.09916 8.63167,0 25.71488,-6.24023 34.52899,-13.09916 l -3.80622,-3.36427 c -7.69923,6.13015 -23.02272,11.7581 -30.72277,11.7581 -7.70005,0 -23.02354,-5.62795 -30.72277,-11.7581 z" /><path
         id="path22819"
         style="fill:#d4aa00;fill-opacity:1;stroke:none;stroke-width:2.82934;stroke-linecap:round;stroke-linejoin:round;stroke-miterlimit:2;stroke-dasharray:none;stroke-dashoffset:0.529134;stroke-opacity:1"
         d="m -151.22907,456.01453 -5.59874,4.94838 26.73995,26.74043 5.27403,-5.27403 z" /><path
         id="path22823"
         style="fill:#d4aa00;fill-opacity:1;stroke:none;stroke-width:2.82934;stroke-linecap:round;stroke-linejoin:round;stroke-miterlimit:2;stroke-dasharray:none;stroke-dashoffset:0.529134;stroke-opacity:1"
         d="m -140.03066,446.11635 -5.59873,4.94886 26.08959,26.09006 5.27404,-5.27403 z" /><path
         id="path22827"
         style="fill:#d4aa00;fill-opacity:1;stroke:none;stroke-width:2.82935;stroke-linecap:round;stroke-linejoin:round;stroke-miterlimit:2;stroke-dasharray:none;stroke-dashoffset:0.529134;stroke-opacity:1"
         d="m -125.6478,546.84177 -1.21573,5.15108 c 15.19866,5.23454 39.37028,9.10304 59.54859,9.10304 20.1783,0 44.34993,-3.8685 59.5486003,-9.10304 l -1.21574,-5.15108 c -15.8831803,4.83443 -38.8802203,8.28606 -58.3328603,8.28606 -19.45265,0 -42.44969,-3.45163 -58.33286,-8.28606 z" /><path
         id="path22831"
         style="fill:#d4aa00;fill-opacity:1;stroke:none;stroke-width:2.82934;stroke-linecap:round;stroke-linejoin:round;stroke-miterlimit:2;stroke-dasharray:none;stroke-dashoffset:0.529134;stroke-opacity:1"
         d="m 16.59901,456.01453 5.59874,4.94838 -26.7399497,26.74043 -5.27403,-5.27403 z" /><path
         id="path22835"
         style="fill:#d4aa00;fill-opacity:1;stroke:none;stroke-width:2.82934;stroke-linecap:round;stroke-linejoin:round;stroke-miterlimit:2;stroke-dasharray:none;stroke-dashoffset:0.529134;stroke-opacity:1"
         d="m 5.4006003,446.11635 5.5987297,4.94886 -26.08959,26.09006 -5.27403,-5.27403 z" /><path
         id="path22841"
         style="color:#000000;fill:#d4aa00;fill-opacity:1;stroke-width:0.91862;stroke-linecap:square"
         d="m -37.69596,484.95097 18.51417,28.06249 1.26273,1.9164 4.8e-4,-4.7e-4 1.98476,3.00824 -4.8e-4,4.7e-4 0.20128,0.30524 1.53285,6.49404 -0.66413,-1.00734 -1.52049,-2.30519 -1.26511,-1.91831 -19.12607,-28.99387 -12.17347,46.5159 -18.36559,-38.79949 v -5.3647 l 17.74134,37.47552 z m -59.23814,0 -18.51417,28.06249 -1.26273,1.9164 -4.7e-4,-4.7e-4 -1.98477,3.00824 4.8e-4,4.7e-4 -0.20128,0.30524 -1.53284,6.49404 0.66412,-1.00734 1.5205,-2.30519 1.2651,-1.91831 19.12607,-28.99387 12.17347,46.5159 18.36559,-38.79949 v -5.3647 l -17.74135,37.47552 z" /><path
         id="path22845"
         style="color:#000000;fill:#d4aa00;stroke-width:0.91862;stroke-linecap:square"
         d="m -60.06822,425.81712 c -10.22727,-4.50462 -15.70994,-2.53141 -17.73744,-2.53141 -1.15068,0 1.77957,0.65935 6.63444,3.16372 l 10.03205,4.09057 18.13488,128.97734 c 1.58664,-0.19376 3.16444,-0.40599 4.73476,-0.63089 l -18.52224,-131.7335 z"
         sodipodi:nodetypes="cscccccc" /><path
         id="path4610-8"
         style="fill:#d4aa00;fill-opacity:1;stroke:none;stroke-width:4.66659;stroke-linecap:round;stroke-linejoin:round;stroke-miterlimit:2;stroke-dashoffset:0.529134"
         d="m 323.56571,392.0469 -0.35699,0.0289 0.83549,1.80247 c -11.53509,52.93079 -19.11705,107.08521 -57.99581,165.24526 l -39.46979,-0.80559 c 0.53853,3.34957 1.10028,6.69911 1.68712,10.04867 l 42.84118,0.87442 c 38.87884,-58.16018 46.46115,-112.31436 57.99629,-165.24519 z m -8.25807,1.58934 c -1.21069,5.98808 -2.40927,11.99132 -3.6377,18.01857 1.22841,-6.02701 2.42709,-12.03065 3.6377,-18.01857 z" /><path
         id="path5150"
         style="fill:#d4aa00;fill-opacity:1;stroke:none;stroke-width:4.7397;stroke-linecap:round;stroke-linejoin:round;stroke-miterlimit:2;stroke-dashoffset:0.529134"
         d="m 315.49357,392.69964 -4.73998,0.38308 c -9.68894,48.23252 -19.71893,97.70741 -53.66124,150.35876 l -32.83048,-0.6945 c 0.36634,2.6845 0.75266,5.36895 1.15355,8.05345 l 34.71223,0.73485 c 35.93359,-55.74024 45.06528,-107.92077 55.36592,-158.83564 z" /><path
         style="color:#000000;fill:#d4aa00;stroke:none;stroke-width:0.407483;stroke-linecap:round;stroke-linejoin:round;stroke-dasharray:none"
         d="m 251.0637,482.93726 a 2.02514,2.02514 0 0 0 2.13295,-1.36003 c 2.90641,-8.50261 5.49164,-18.39226 8.37119,-26.3241 1.43978,-3.96593 2.96285,-7.43982 4.54114,-9.93375 1.57833,-2.49392 3.16828,-3.8701 4.50898,-4.21885 a 2.02514,2.02514 0 0 0 0.37504,-3.7827 c -6.89035,-3.34166 -9.07858,-9.32202 -11.79035,-14.81815 a 2.02514,2.02514 0 0 0 -3.40409,-0.36134 c -3.80534,4.80449 -7.20021,10.19206 -14.63848,12.01271 a 2.02514,2.02514 0 0 0 -0.42743,3.77714 c 1.23756,0.62243 2.50334,2.30177 3.52278,5.07142 1.01948,2.76968 1.77515,6.48546 2.35014,10.66526 1.14992,8.35957 1.60609,18.57202 2.66266,27.49536 a 2.02514,2.02514 0 0 0 1.79552,1.77704 z m 1.27747,-12.03454 c -0.50638,-6.05756 -0.95407,-12.20542 -1.72215,-17.78844 -0.59517,-4.3268 -1.37012,-8.26293 -2.56535,-11.51005 -0.69121,-1.87784 -1.60844,-3.46577 -2.70971,-4.82163 5.5179,-2.34291 8.88957,-6.21411 11.65902,-9.79682 1.9566,4.08603 4.43937,8.5812 9.34638,12.031 -1.3605,1.09425 -2.59588,2.45044 -3.66543,4.14046 -1.8504,2.92383 -3.42978,6.61006 -4.92019,10.71547 -1.92324,5.29759 -3.6556,11.21345 -5.42257,17.03001 z"
         id="path5173" /><path
         id="path4782"
         style="fill:#d4aa00;fill-opacity:1;stroke:none;stroke-width:4.66659;stroke-linecap:round;stroke-linejoin:round;stroke-miterlimit:2;stroke-dashoffset:0.529134"
         d="m 350.28318,555.51763 -36.94004,7.85218 c 1.71588,1.68103 3.47215,3.34666 5.26833,4.9968 l 32.05813,-6.7029 c -0.13617,-2.04579 -0.26335,-4.09499 -0.38642,-6.14608 z" /><path
         id="path4858"
         style="fill:#d4aa00;fill-opacity:1;stroke:none;stroke-width:4.66659;stroke-linecap:round;stroke-linejoin:round;stroke-miterlimit:2;stroke-dashoffset:0.529134"
         d="m 349.54217,541.98839 -46.82494,9.88441 c 1.84388,2.25379 3.8041,4.46281 5.8527,6.63788 -0.19138,-0.20327 -0.38271,-0.40659 -0.5725,-0.61048 l 41.9131,-8.91316 c -0.12699,-2.33104 -0.25005,-4.66372 -0.36836,-6.99865 z m -40.73156,16.77816 c 0.16,0.16909 0.32074,0.33782 0.48183,0.50651 -0.161,-0.16868 -0.3219,-0.33743 -0.48183,-0.50651 z m 0.88533,0.92711 c 0.10062,0.10459 0.19996,0.20981 0.30097,0.31425 l 0.002,-4.7e-4 c -0.10107,-0.10454 -0.20172,-0.20909 -0.30239,-0.31378 z" /><path
         style="color:#000000;fill:#d4aa00;stroke:none;stroke-width:0.304063;stroke-linecap:round;stroke-linejoin:round;stroke-dasharray:none"
         d="m 332.25547,525.13722 a 1.5111607,1.5111607 0 0 1 -1.59161,-1.01485 c -2.16876,-6.34465 -4.09786,-13.72432 -6.24659,-19.64306 -1.07436,-2.95938 -2.21087,-5.5516 -3.3886,-7.41257 -1.17774,-1.86097 -2.36418,-2.88787 -3.3646,-3.14811 a 1.5111607,1.5111607 0 0 1 -0.27986,-2.82265 c 5.14158,-2.49355 6.77444,-6.95611 8.79797,-11.05732 a 1.5111607,1.5111607 0 0 1 2.54014,-0.26963 c 2.83954,3.58512 5.3728,7.60532 10.92324,8.96389 a 1.5111607,1.5111607 0 0 1 0.31894,2.81851 c -0.92347,0.46445 -1.86798,1.71758 -2.6287,3.78429 -0.76073,2.06673 -1.32461,4.83946 -1.75367,7.95843 -0.85807,6.23791 -1.19846,13.85844 -1.98687,20.51705 a 1.5111607,1.5111607 0 0 1 -1.33983,1.32603 z m -0.95324,-8.98018 c 0.37785,-4.52015 0.71192,-9.1077 1.28506,-13.27374 0.44411,-3.22867 1.02238,-6.16581 1.91426,-8.58881 0.51578,-1.40124 1.20023,-2.58616 2.02199,-3.5979 -4.11745,-1.74829 -6.63341,-4.63698 -8.69996,-7.3104 -1.46002,3.049 -3.31267,6.4033 -6.97428,8.97754 1.01521,0.81653 1.93705,1.82852 2.73515,3.08962 1.38076,2.18176 2.5593,4.93242 3.67145,7.99588 1.43512,3.95307 2.7278,8.36749 4.04633,12.70781 z"
         id="path5146" /><path
         id="path8412"
         style="fill:#d4aa00;fill-opacity:1;stroke:none;stroke-width:5.51173;stroke-linecap:round;stroke-linejoin:miter;stroke-miterlimit:2;stroke-dasharray:none;stroke-dashoffset:0.529134;stroke-opacity:1"
         d="M 34.191913,28.522418 40.30523,32.092241 17.125612,72.240374 10.994721,68.700462 Z" /><path
         id="path8416"
         style="fill:#d4aa00;fill-opacity:1;stroke:none;stroke-width:5.51173;stroke-linecap:round;stroke-linejoin:miter;stroke-miterlimit:2;stroke-dasharray:none;stroke-dashoffset:0.529134;stroke-opacity:1"
         d="m -119.46324,28.58224 -6.11332,3.569823 23.17962,40.148133 6.130892,-3.539912 z" /><path
         style="color:#000000;fill:#d4aa00;stroke:none;stroke-width:0.279964;stroke-linecap:round;stroke-linejoin:round;stroke-dasharray:none"
         d="m 98.839058,272.57395 a 0.62998165,0.62998165 0 0 0 -0.715859,0.32681 c -1.262784,2.49375 -2.486573,5.42869 -3.716422,7.74777 -0.614925,1.15954 -1.234238,2.16391 -1.82823,2.864 -0.593992,0.70008 -1.143277,1.05533 -1.571365,1.10483 a 0.62998165,0.62998165 0 0 0 -0.278992,1.14911 c 1.978267,1.3272 2.393952,3.2641 2.991848,5.07444 a 0.62998165,0.62998165 0 0 0 1.03307,0.25842 c 1.379899,-1.31565 2.658556,-2.82866 5.028701,-3.06811 a 0.62998165,0.62998165 0 0 0 0.294911,-1.14513 c -0.354359,-0.24523 -0.671724,-0.81727 -0.866101,-1.71456 -0.194377,-0.89728 -0.266603,-2.07465 -0.263106,-3.38714 0.007,-2.62498 0.3078,-5.79078 0.367895,-8.5854 a 0.62998165,0.62998165 0 0 0 -0.476348,-0.62504 z m -0.913596,3.65221 c -0.105778,1.888 -0.233497,3.80129 -0.238167,5.55441 -0.0036,1.35865 0.06502,2.60472 0.292908,3.65669 0.131789,0.60837 0.345741,1.13719 0.626403,1.60247 -1.801113,0.48333 -3.007088,1.5302 -4.015078,2.51423 -0.426187,-1.34331 -0.99679,-2.8354 -2.359388,-4.11021 0.466406,-0.27831 0.905591,-0.64272 1.308116,-1.11714 0.696385,-0.82076 1.342231,-1.8881 1.978785,-3.08843 0.821408,-1.5489 1.610728,-3.2965 2.406421,-5.01202 z"
         id="path19951" /><path
         style="color:#000000;fill:#d4aa00;stroke:none;stroke-width:0.279964;stroke-linecap:round;stroke-linejoin:round;stroke-dasharray:none"
         d="m 73.821691,282.65884 a 0.62998165,0.62998165 0 0 0 0.0896,0.78181 c 1.981483,1.97159 4.3946,4.04243 6.220133,5.92872 0.91277,0.94315 1.676603,1.84251 2.15887,2.62377 0.482267,0.78126 0.650384,1.41344 0.565178,1.83587 a 0.62998165,0.62998165 0 0 0 1.006653,0.62043 c 1.873566,-1.47131 3.84412,-1.26812 5.750618,-1.27732 a 0.62998165,0.62998165 0 0 0 0.565009,-0.90266 c -0.824851,-1.71892 -1.868683,-3.40254 -1.363997,-5.73067 a 0.62998165,0.62998165 0 0 0 -0.997949,-0.63434 c -0.34273,0.26123 -0.984844,0.38629 -1.898281,0.29388 -0.913437,-0.0924 -2.055496,-0.38755 -3.302669,-0.79646 -2.494341,-0.81781 -5.412244,-2.08218 -8.051519,-3.00292 a 0.62998165,0.62998165 0 0 0 -0.741643,0.25988 z m 3.191141,1.99747 c 1.762912,0.68403 3.543088,1.39674 5.208956,1.94292 1.291041,0.42329 2.497333,0.74306 3.568238,0.85141 0.619314,0.0626 1.188368,0.0226 1.717604,-0.10056 -0.0969,1.86232 0.52607,3.33277 1.150452,4.59551 -1.409267,-0.01 -3.004654,0.0718 -4.638136,0.97378 -0.12056,-0.52958 -0.331416,-1.05987 -0.658228,-1.5893 -0.565399,-0.91593 -1.380922,-1.85999 -2.325797,-2.83632 -1.219258,-1.25984 -2.637418,-2.55056 -4.023089,-3.83744 z"
         id="path20687" /><path
         style="color:#000000;fill:#d4aa00;stroke:none;stroke-width:0.279964;stroke-linecap:round;stroke-linejoin:round;stroke-dasharray:none"
         d="m 75.682195,309.56817 a 0.62998165,0.62998165 0 0 0 0.771234,0.15638 c 2.487408,-1.27525 5.202585,-2.93034 7.560675,-4.08362 1.179048,-0.57665 2.270436,-1.02518 3.162485,-1.24242 0.89205,-0.21724 1.545237,-0.18178 1.920664,0.0298 a 0.62998165,0.62998165 0 0 0 0.901138,-0.76566 c -0.820339,-2.23653 -0.01816,-4.04785 0.562229,-5.86388 a 0.62998165,0.62998165 0 0 0 -0.683874,-0.81629 c -1.889686,0.2533 -3.813467,0.72578 -5.871698,-0.47364 a 0.62998165,0.62998165 0 0 0 -0.911674,0.75308 c 0.142537,0.40669 0.06305,1.05602 -0.307105,1.89619 -0.370158,0.84017 -1.003763,1.83513 -1.778055,2.89491 -1.548581,2.11954 -3.652751,4.50392 -5.344008,6.72949 a 0.62998165,0.62998165 0 0 0 0.01799,0.78566 z m 2.88583,-2.4177 c 1.195317,-1.46526 2.423246,-2.93807 3.457479,-4.35362 0.801528,-1.09705 1.478414,-2.14549 1.912383,-3.1305 0.25097,-0.56964 0.388711,-1.12322 0.435136,-1.66461 1.741226,0.66764 3.332217,0.52956 4.726096,0.32595 -0.444787,1.33727 -0.860189,2.87978 -0.507138,4.71204 -0.540915,-0.049 -1.110417,-0.0123 -1.714923,0.13489 -1.045821,0.25469 -2.195688,0.73857 -3.416207,1.3355 -1.57495,0.77027 -3.240741,1.72016 -4.892826,2.64035 z"
         id="path20693" /><path
         style="color:#000000;fill:#d4aa00;stroke:none;stroke-width:0.279964;stroke-linecap:round;stroke-linejoin:round;stroke-dasharray:none"
         d="m 101.84942,316.11415 a 0.62998166,0.62998166 0 0 0 0.38705,-0.68516 c -0.44418,-2.75974 -1.17923,-5.85348 -1.54738,-8.45254 -0.18408,-1.29953 -0.27339,-2.47611 -0.20434,-3.39163 0.069,-0.91552 0.30462,-1.52578 0.62185,-1.81745 a 0.62998166,0.62998166 0 0 0 -0.44972,-1.09364 c -2.380559,0.0891 -3.855337,-1.23358 -5.403137,-2.34675 a 0.62998166,0.62998166 0 0 0 -0.987667,0.39816 c -0.343038,1.87547 -0.488168,3.8511 -2.264912,5.43795 a 0.62998166,0.62998166 0 0 0 0.434503,1.09977 c 0.430823,-0.01 1.023814,0.26636 1.70848,0.87803 0.684667,0.61167 1.435137,1.52172 2.203771,2.58561 1.537265,2.12776 3.154719,4.86576 4.748742,7.16198 a 0.62998166,0.62998166 0 0 0 0.75276,0.22567 z m -1.4076,-3.4917 c -1.024165,-1.5896 -2.04544,-3.21255 -3.072116,-4.6336 -0.79567,-1.1013 -1.583623,-2.06904 -2.38632,-2.78616 -0.464207,-0.41471 -0.948132,-0.71678 -1.448676,-0.92823 1.173035,-1.44969 1.533353,-3.00548 1.770436,-4.39406 1.134373,0.83626 2.473028,1.70799 4.324708,1.93842 -0.213745,0.4993 -0.35486,1.05226 -0.401653,1.67267 -0.08095,1.07334 0.02391,2.31645 0.214465,3.6617 0.245885,1.73589 0.634526,3.61368 0.999156,5.46926 z"
         id="path20699" /><path
         style="color:#000000;fill:#d4aa00;stroke:none;stroke-width:0.279964;stroke-linecap:round;stroke-linejoin:round;stroke-dasharray:none"
         d="m 116.16114,293.25048 a 0.62998165,0.62998165 0 0 0 -0.53202,-0.57984 c -2.76193,-0.43036 -5.93139,-0.68731 -8.51701,-1.14033 -1.29281,-0.22651 -2.4394,-0.50515 -3.28878,-0.85373 -0.84937,-0.34858 -1.35697,-0.7612 -1.53633,-1.15304 a 0.62998165,0.62998165 0 0 0 -1.17908,0.0897 c -0.65093,2.29158 -2.364578,3.28545 -3.901556,4.41351 a 0.62998165,0.62998165 0 0 0 0.07346,1.06236 c 1.677676,0.90581 3.511766,1.65434 4.471906,3.83448 a 0.62998165,0.62998165 0 0 0 1.18021,-0.0734 c 0.12373,-0.41279 0.5697,-0.89139 1.36301,-1.35353 0.7933,-0.46214 1.89072,-0.89466 3.14006,-1.29692 2.49866,-0.80451 5.60247,-1.49671 8.27889,-2.30314 a 0.62998165,0.62998165 0 0 0 0.44724,-0.64618 z m -3.75577,0.25971 c -1.82829,0.48282 -3.6874,0.95259 -5.35615,1.48989 -1.29328,0.41641 -2.45715,0.86675 -3.38721,1.40856 -0.53787,0.31333 -0.97469,0.68023 -1.33047,1.09093 -1.01625,-1.5636 -2.384553,-2.38705 -3.631906,-3.04162 1.145868,-0.82044 2.388606,-1.82419 3.179956,-3.51404 0.40881,0.35758 0.8911,0.66266 1.46669,0.89888 0.99578,0.40867 2.21046,0.69308 3.54875,0.92756 1.72691,0.30257 3.6329,0.51321 5.51034,0.73984 z"
         id="path20705" /><path
         style="color:#000000;fill:#d4aa00;stroke:none;stroke-width:0.395925;stroke-linecap:round;stroke-linejoin:round;stroke-dasharray:none"
         d="m -83.0229,484.76141 a 1.5111607,1.5111607 0 0 0 1.59161,-1.01485 c 2.16876,-6.34466 4.09786,-13.72432 6.24659,-19.64306 1.07436,-2.95939 2.21087,-5.5516 3.3886,-7.41257 1.17774,-1.86097 2.36418,-2.88788 3.3646,-3.14811 a 1.5111607,1.5111607 0 0 0 0.27986,-2.82266 c -5.14158,-2.49355 -6.77444,-6.9561 -8.79797,-11.05731 a 1.5111607,1.5111607 0 0 0 -2.54014,-0.26963 c -2.83954,3.58511 -5.3728,7.60532 -10.92324,8.96388 a 1.5111607,1.5111607 0 0 0 -0.31894,2.81851 c 0.92347,0.46446 1.86798,1.71759 2.6287,3.7843 0.76073,2.06673 1.32461,4.83945 1.75367,7.95843 0.85807,6.23791 1.19846,13.85844 1.98687,20.51704 a 1.5111607,1.5111607 0 0 0 1.33983,1.32604 z m 0.95324,-8.98018 c -0.37785,-4.52016 -0.71192,-9.1077 -1.28506,-13.27375 -0.44411,-3.22866 -1.02238,-6.1658 -1.91426,-8.5888 -0.51578,-1.40125 -1.20023,-2.58616 -2.02199,-3.59791 4.11745,-1.74829 6.63341,-4.63697 8.69996,-7.31039 1.46002,3.049 3.31267,6.40329 6.97428,8.97753 -1.01521,0.81654 -1.93705,1.82853 -2.73515,3.08963 -1.38076,2.18176 -2.5593,4.93242 -3.67145,7.99588 -1.43512,3.95307 -2.7278,8.36749 -4.04633,12.70781 z"
         id="path5142" /><rect
         style="opacity:1;fill:#d4aa00;fill-opacity:1;stroke:none;stroke-width:2.07137;stroke-linecap:round;stroke-linejoin:round;stroke-miterlimit:2;stroke-dasharray:none;stroke-dashoffset:0.529134"
         id="rect16423"
         width="20"
         height="20"
         x="12.854177"
         y="-226.94176" /><path
         style="color:#000000;fill:#d4aa00;stroke-width:0.91862;stroke-linecap:round;stroke-miterlimit:2;stroke-dashoffset:0.529134"
         d="m -113.1859,-134.54018 v 3.10034 74.982382 h 445.53083 v -78.082722 z m 6.20069,6.20069 h 433.12945 v 65.681345 h -433.12945 z"
         id="path5113" /></g></g></svg>
